<svg xmlns="http://www.w3.org/2000/svg" viewBox="0 0 39.19 47.85"><defs><style>.cls-1{fill:#fff;}</style></defs><title>Ресурс 8</title><g id="Слой_2" data-name="Слой 2"><g id="Layer_1" data-name="Layer 1"><path class="cls-1" d="M0,27q0-.71,0-1.42c.06-.44.13-.87.18-1.31A14.13,14.13,0,0,1,3,16.82a11.11,11.11,0,0,1,13-3.62c.74.31,1.5.56,2.25.85a4.3,4.3,0,0,0,3.28,0c1-.38,1.95-.73,2.92-1.09a11.76,11.76,0,0,1,7.64-.2,10.46,10.46,0,0,1,5.73,4.06c-7.78,5-6.3,15.43,1.35,18.54v.16c-.56,1.24-1.06,2.5-1.69,3.7a27,27,0,0,1-4.66,6.54,5.89,5.89,0,0,1-5.33,2,13.92,13.92,0,0,1-3.11-1,9.65,9.65,0,0,0-7.7,0c-.67.27-1.33.55-2,.77A5.53,5.53,0,0,1,9,46.44a16.76,16.76,0,0,1-1.79-1.79A29.11,29.11,0,0,1,.64,31.37C.35,29.94.21,28.48,0,27Z"/><path class="cls-1" d="M19.65,10.8C18.81,6.22,23.55,0,29.08,0,29.83,5.35,24.64,11.39,19.65,10.8Z"/></g></g></svg>