<svg xmlns="http://www.w3.org/2000/svg" viewBox="0 0 97.83 78.54"><defs><style>.cls-1{fill:none;stroke:#999;stroke-linecap:round;stroke-linejoin:round;}</style></defs><title>Ресурс 2</title><g id="Слой_2" data-name="Слой 2"><g id="Layer_1" data-name="Layer 1"><path class="cls-1" d="M.5,27.58a27.08,27.08,0,0,1,54.17,0"/><line class="cls-1" x1="14.05" y1="27.99" x2="24.62" y2="59.68"/><path class="cls-1" d="M27.59,27.88s0,.07,0,.11"/><path class="cls-1" d="M14,28a6.77,6.77,0,0,1,13.54-.11"/><path class="cls-1" d="M22.37,60.78.5,28A6.77,6.77,0,1,1,14,28"/><path class="cls-1" d="M27.59,27.88A6.77,6.77,0,0,1,41.13,28"/><path class="cls-1" d="M27.59,27.88s0,.07,0,.11V59.2"/><path class="cls-1" d="M32.82,60.78,54.68,28a6.77,6.77,0,1,0-13.55,0"/><line class="cls-1" x1="41.13" y1="27.99" x2="30.57" y2="59.68"/><path class="cls-1" d="M22.37,60.78a9.42,9.42,0,1,0,10.45,0"/><path class="cls-1" d="M24.62,59.68a9.39,9.39,0,0,1,3-.49"/><path class="cls-1" d="M32.82,60.78a9.38,9.38,0,0,0-2.25-1.1"/><path class="cls-1" d="M22.37,60.78a9.38,9.38,0,0,1,2.25-1.1"/><path class="cls-1" d="M30.57,59.68a9.39,9.39,0,0,0-3-.49h0"/><path class="cls-1" d="M66.43,25.35a15.45,15.45,0,0,1,30.9,0"/><line class="cls-1" x1="74.15" y1="25.58" x2="80.18" y2="43.67"/><path class="cls-1" d="M81.88,25.52s0,0,0,.06"/><path class="cls-1" d="M74.15,25.58a3.86,3.86,0,0,1,7.72-.06"/><path class="cls-1" d="M78.9,44.29,66.43,25.58a3.86,3.86,0,1,1,7.73,0"/><path class="cls-1" d="M81.88,25.52a3.86,3.86,0,0,1,7.72.06"/><path class="cls-1" d="M81.88,25.52s0,0,0,.06v17.8"/><path class="cls-1" d="M84.86,44.29,97.33,25.58a3.86,3.86,0,1,0-7.73,0"/><line class="cls-1" x1="89.6" y1="25.58" x2="83.58" y2="43.66"/><path class="cls-1" d="M78.9,44.29a5.37,5.37,0,1,0,6,0"/><path class="cls-1" d="M80.18,43.67a5.36,5.36,0,0,1,1.7-.28"/><path class="cls-1" d="M84.86,44.29a5.35,5.35,0,0,0-1.28-.62"/><path class="cls-1" d="M78.9,44.29a5.35,5.35,0,0,1,1.28-.63"/><path class="cls-1" d="M83.58,43.66a5.36,5.36,0,0,0-1.7-.28h0"/></g></g></svg>