<svg xmlns="http://www.w3.org/2000/svg" viewBox="0 0 31.43 37.01"><defs><style>.cls-1{fill:#fff;}</style></defs><title>Ресурс 12</title><g id="Слой_2" data-name="Слой 2"><g id="Layer_1" data-name="Layer 1"><path class="cls-1" d="M4.35,25.59a1.39,1.39,0,0,1-.11-1,3.39,3.39,0,0,1,.32-1.05c.12-.26.25-.52.39-.77s.36-.68.56-1a11.53,11.53,0,0,0,1.16-3l.14-.57a5.47,5.47,0,0,1,1-2.07c.44-.56.9-1.1,1.35-1.65a12.19,12.19,0,0,0,1-1.28,4,4,0,0,0,.59-2.6c-.11-1.15-.22-2.29-.3-3.44,0-.78-.05-1.56,0-2.34a6,6,0,0,1,.44-2.19A4.85,4.85,0,0,1,12.05,1,3.18,3.18,0,0,1,13.51.24,9.36,9.36,0,0,1,16.14,0a3.11,3.11,0,0,1,.37.05c.26,0,.53.07.78.13a5.21,5.21,0,0,1,2.26,1.14,5.4,5.4,0,0,1,.84,1,4.78,4.78,0,0,1,.67,1.52,13.91,13.91,0,0,1,.43,2.38c0,.38.08.75.12,1.13,0,.16,0,.33,0,.49,0,.32.05.64.09,1,.07.55.14,1.1.24,1.64a4.26,4.26,0,0,0,.51,1.47c.12.19.2.4.31.59.31.57.69,1.09,1.05,1.63s.53.77.81,1.14c.11.16.25.3.38.45a12.19,12.19,0,0,1,2,3.2c.2.49.41,1,.59,1.46a9,9,0,0,1,.47,2.37c0,.48,0,1,0,1.43A7.22,7.22,0,0,1,27.82,26l0,.17a.16.16,0,0,0,0,0l0,0a.57.57,0,0,1,.47.35,4.21,4.21,0,0,1,.2.53,6.86,6.86,0,0,1,.22,1.23,1.21,1.21,0,0,0,.42.76,6.08,6.08,0,0,0,.58.45c.13.09.28.16.43.24s.55.29.81.45a1,1,0,0,1,.45.65A1.2,1.2,0,0,1,31.1,32a2,2,0,0,1-.85.55l-.16.07c-.25.12-.5.26-.76.37a8.7,8.7,0,0,0-2,1.29c-.61.5-1.21,1-1.81,1.54a7,7,0,0,1-1.17.85,2.53,2.53,0,0,1-1.57.3l-.37,0a2.76,2.76,0,0,1-2.15-1.42.2.2,0,0,0-.17-.12c-.83-.08-1.65-.18-2.48-.25a19.54,19.54,0,0,0-2.73-.07,8.44,8.44,0,0,0-2.29.39c-.2.07-.4.15-.59.23a.4.4,0,0,0-.12.11,2.81,2.81,0,0,1-1.36.88,3.19,3.19,0,0,1-1.4,0,13.2,13.2,0,0,1-2-.58,31.5,31.5,0,0,0-3.65-1.07c-.4-.09-.81-.15-1.22-.22a6.9,6.9,0,0,1-1.35-.37,2.53,2.53,0,0,1-.5-.26A.72.72,0,0,1,0,33.48a1.87,1.87,0,0,1,.29-.75c.17-.27.31-.55.45-.83A1.74,1.74,0,0,0,.9,30.84Q.77,30,.66,29.18a2.67,2.67,0,0,1,0-1,1.61,1.61,0,0,1,.64-.92.88.88,0,0,1,.55-.17H3.11a1.11,1.11,0,0,0,.6-.18.27.27,0,0,0,.1-.12c.08-.18.16-.37.22-.56A1.64,1.64,0,0,1,4.35,25.59ZM22.48,26a.27.27,0,0,0,0-.05c0-.44.09-.88.1-1.31,0-.69,0-1.38,0-2.07a9.51,9.51,0,0,0-.4-2.65,4.23,4.23,0,0,0-.56-1.29,17.67,17.67,0,0,1-1.2-2,.47.47,0,0,1,0-.09,5.53,5.53,0,0,1-.23-1.31A.54.54,0,0,0,20.1,15a25.07,25.07,0,0,1-1.17-2.34l-.11-.27-.36-.81-.14.11-.84.65a8.19,8.19,0,0,1-1.61,1,3.86,3.86,0,0,1-2.3.32,1.69,1.69,0,0,1-.91-.44c-.25-.24-.52-.46-.78-.68h0a.76.76,0,0,0,0,.08,3.4,3.4,0,0,1-.41,1.31c-.14.26-.27.53-.42.79a9.63,9.63,0,0,0-.67,1.53,4.59,4.59,0,0,0-.22.83,1.6,1.6,0,0,1-.11.45c-.34.7-.69,1.39-1,2.08a13.19,13.19,0,0,0-1.13,3,6.7,6.7,0,0,0-.18,2.32l0,.26L7.56,25a1.78,1.78,0,0,1-.69-1.38A5.17,5.17,0,0,1,7,22.38a10.19,10.19,0,0,1,.63-1.95A8.13,8.13,0,0,1,8.82,18.3l0-.06a.38.38,0,0,0-.08-.08l-.25-.11a1.91,1.91,0,0,0-.16.2,7.43,7.43,0,0,0-.42.71Q7.47,20,7,21a8.21,8.21,0,0,0-.31.86,4.67,4.67,0,0,0-.25,1.78,2.36,2.36,0,0,0,.67,1.55c.17.16.33.33.51.48a14.57,14.57,0,0,0,2,1.43,5.94,5.94,0,0,1,.93.71A11.19,11.19,0,0,1,11.74,29a4,4,0,0,1,.39.6.68.68,0,0,1-.07.75,2.68,2.68,0,0,1-.25.27l-.15.15a1.2,1.2,0,0,1-.71.37l-.13,0a1.66,1.66,0,0,0,.06.17c.07.15.16.3.23.45a1.38,1.38,0,0,0,.47.55,3.32,3.32,0,0,0,.48.28,4.35,4.35,0,0,0,1.46.36,8.64,8.64,0,0,0,2.08-.06A7.12,7.12,0,0,0,18.12,32a8.13,8.13,0,0,0,2.39-2.15.58.58,0,0,0,.14-.43c0-.11,0-.22,0-.33a1.38,1.38,0,0,0-.1-.57.23.23,0,0,1,0-.1,7.12,7.12,0,0,1,.08-1.38,2.24,2.24,0,0,1,.44-1,.86.86,0,0,1,.89-.34,2.24,2.24,0,0,1,.39.15ZM11.74,34.64a4.54,4.54,0,0,0-.32-1.54,9.24,9.24,0,0,0-1.13-2c-.43-.6-.88-1.17-1.31-1.77-.21-.29-.4-.58-.58-.88-.32-.53-.6-1.07-.95-1.58a3.83,3.83,0,0,0-1.06-1,2.13,2.13,0,0,0-.65-.29.45.45,0,0,0-.21,0l-.44.13a1.11,1.11,0,0,0-.7.72c0,.12-.06.25-.09.38s-.05.23-.09.34a.34.34,0,0,1-.19.21,1.81,1.81,0,0,1-.66.17l-1,0a2.85,2.85,0,0,0-.77.12.43.43,0,0,0-.22.16A1.74,1.74,0,0,0,1,29.12c.07.42.15.84.22,1.27a2.74,2.74,0,0,1-.06,1.26,3.86,3.86,0,0,1-.38.84,4.21,4.21,0,0,0-.39.86.5.5,0,0,0,.2.61,2.8,2.8,0,0,0,.51.28,5.15,5.15,0,0,0,1.11.3c.57.1,1.13.19,1.7.31a23,23,0,0,1,3,.9c.69.25,1.39.5,2.1.69a2.08,2.08,0,0,0,1,0,2.73,2.73,0,0,0,1.62-1,.47.47,0,0,0,.09-.21C11.69,35,11.71,34.84,11.74,34.64Zm11.11,2A3.32,3.32,0,0,0,24,36.44a1.17,1.17,0,0,0,.26-.14,2.75,2.75,0,0,1,.35-.24,2.64,2.64,0,0,0,.62-.44L27,34.09a10.79,10.79,0,0,1,2.41-1.47c.21-.1.44-.18.66-.27a2.24,2.24,0,0,0,.58-.32.48.48,0,0,0,.11-.12,1,1,0,0,0-.15-1.36,2.65,2.65,0,0,0-.82-.52,2.25,2.25,0,0,1-1-.74,2.94,2.94,0,0,1-.56-1.37,8.43,8.43,0,0,0-.24-1,.88.88,0,0,0-.06-.15c-.06-.13-.1-.15-.25-.11a.67.67,0,0,0-.32.18l-.44.43a4.47,4.47,0,0,0-.4.4,3,3,0,0,1-.84.71,2.07,2.07,0,0,1-1.39.23A1.75,1.75,0,0,1,22.8,27.4a5.51,5.51,0,0,1-.23-.73.69.69,0,0,0-1.25-.22,1.77,1.77,0,0,0-.17.45,4.09,4.09,0,0,0-.1,1c0,1.15,0,2.29,0,3.44a7.42,7.42,0,0,1-.15,1.29,8.36,8.36,0,0,0-.1,1,2.92,2.92,0,0,1,0,.37q-.09.56-.2,1.12a.36.36,0,0,0,0,.28A2.53,2.53,0,0,0,22.85,36.66ZM11.54,11.18a1.52,1.52,0,0,0,.34.59c.24.24.48.49.73.72a2.38,2.38,0,0,0,2.4.61,5.54,5.54,0,0,0,1.53-.71c.59-.38,1.17-.77,1.75-1.16a1.66,1.66,0,0,0,.46-.43,1.18,1.18,0,0,0,.17-.35.41.41,0,0,0-.11-.49,2.4,2.4,0,0,0-.48-.35c-.3-.14-.6-.27-.91-.39l-1-.36A11.73,11.73,0,0,0,15,8.39a1.92,1.92,0,0,0-1.33.11c-.33.16-.66.31-1,.48a3.92,3.92,0,0,0-.93.71,1.61,1.61,0,0,0-.36.52.37.37,0,0,0,0,.46.9.9,0,0,1,.1.15.53.53,0,0,0,.09.11,4.84,4.84,0,0,0,1.11.7,2.68,2.68,0,0,0,1.62.18A5.6,5.6,0,0,0,16,11.2a11.48,11.48,0,0,0,1.43-.93l.14-.09c0,.15.08.23.14.33l-.11.09-.77.49a8,8,0,0,1-1.86.86,3.44,3.44,0,0,1-1.54.13,4,4,0,0,1-1.76-.77Zm11,6.42.18.09a2.91,2.91,0,0,1,1.42,1.43,5.8,5.8,0,0,1,.47,2.77,9,9,0,0,1-.49,2.33.7.7,0,0,1-.36.44,2.7,2.7,0,0,0-1.07,1.17.16.16,0,0,0,0,.09.22.22,0,0,0,.05.12s.09,0,.12,0l0,0a5.12,5.12,0,0,1,.58-.66,1.51,1.51,0,0,1,1.07-.49,4.16,4.16,0,0,1,2,.39,1.19,1.19,0,0,1,.41.28,2.57,2.57,0,0,1,.48.73l0,.06s.07.08.12.05a.15.15,0,0,0,.06-.1.73.73,0,0,0,0-.19,1.26,1.26,0,0,0-.28-.58,2.22,2.22,0,0,0-1-.71A4.86,4.86,0,0,0,25,24.49l-.54-.06a1.26,1.26,0,0,1,0-.13,9.79,9.79,0,0,0,.39-1.88,7.89,7.89,0,0,0,0-2.29A4.15,4.15,0,0,0,23.72,18a2,2,0,0,0-1-.57C22.59,17.34,22.53,17.39,22.51,17.6ZM18.33,9.4a1.12,1.12,0,0,0,0-.12c0-.23.09-.47.13-.7a5.5,5.5,0,0,0,.07-1.51,2.53,2.53,0,0,0-.25-.92.83.83,0,0,0-.13-.2,1.44,1.44,0,0,0-.73-.41A1.91,1.91,0,0,0,16,5.82a.26.26,0,0,0-.08.06,1.64,1.64,0,0,0-.35.84,3.35,3.35,0,0,0,.3,1.58.43.43,0,0,0,.37.21,3.33,3.33,0,0,1-.05-.38,6.39,6.39,0,0,1,0-.67,1,1,0,0,1,.58-.9.77.77,0,0,1,.79,0,1,1,0,0,1,.54.65.86.86,0,0,0,0,.12,1.74,1.74,0,0,1,.09.8.93.93,0,0,1-.63.85l-.09.05a.88.88,0,0,0,.22.09,1.08,1.08,0,0,1,.49.17Zm-5-1.09h.08c0-.11.14-.19.13-.32,0-.33,0-.66,0-1a1.46,1.46,0,0,0-.6-1.06,1,1,0,0,0-1.45.38l-.09.19a3,3,0,0,0-.17,1.72,2,2,0,0,0,.61,1.06c.11-.1.26-.12.35-.24l-.06,0a1,1,0,0,1-.5-.72,2.82,2.82,0,0,1,0-.89,1,1,0,0,1,.13-.31,1.49,1.49,0,0,1,.16-.22.64.64,0,0,1,.6-.25.7.7,0,0,1,.56.42,3.5,3.5,0,0,1,.2.73A4.7,4.7,0,0,1,13.33,8.31Zm-.4-.5a1.18,1.18,0,0,0-.17-.74.47.47,0,0,0-.39-.23L12.23,7v.22h.34l.16.6Zm5,0a2.07,2.07,0,0,1-.06-.38c0-.29-.18-.44-.39-.57a.13.13,0,0,0-.11,0L17.11,7c.07.08.11.18.19.2a.57.57,0,0,1,.33.34l.12.28Z"/></g></g></svg>