<svg xmlns="http://www.w3.org/2000/svg" viewBox="0 0 38.38 50.96"><defs><style>.cls-1{fill:#272d63;}</style></defs><title>Ресурс 13</title><g id="Слой_2" data-name="Слой 2"><g id="Layer_1" data-name="Layer 1"><path class="cls-1" d="M11.36,49,7,47.82l1.64-7.23L0,38.23l2-4.89a6.26,6.26,0,0,1,1.2,0c3.82.83,3.82.84,4.73-2.88,1.23-5,2.48-10,3.71-15,.94-3.87.77-4.15-3.08-5.24L7,9.73,8.22,5,17,7.1,18.91,0l4.45,1.07-1.63,7L25,8.9,26.8,2l4.46,1.06-1.66,7.12c1.62.81,3.23,1.49,4.71,2.39,2.9,1.76,4.43,4.27,4,7.81A7.44,7.44,0,0,1,32.65,27,24.92,24.92,0,0,1,20,27.27c-2.42-.5-3.15.19-3.66,2.41-1.4,6.06-3,12.07-4.58,18.1C11.68,48.13,11.54,48.47,11.36,49Zm6.91-26.56c2.68.31,5,.74,7.41.81a3.52,3.52,0,0,0,3.7-2.77,3.49,3.49,0,0,0-1.67-4.31c-2.22-1.12-4.62-1.88-7.18-2.89Z"/><path class="cls-1" d="M19.36,51,14.9,49.73l3-12.45c1.68.11,3.17.27,4.67.3,2,.05,4-.08,5.11-2.2S28,31.57,26.37,30c2.71-.6,5.22-1.29,7.77-1.63.65-.09,1.71.81,2.15,1.53,3.56,5.75-1.25,14-8.35,14.33a33.36,33.36,0,0,1-5.22-.32c-1.12-.13-1.66.18-1.9,1.34C20.44,47.08,19.9,48.89,19.36,51Z"/></g></g></svg>