<svg xmlns="http://www.w3.org/2000/svg" viewBox="0 0 55.4 55.4"><defs><style>.cls-1{fill:#004387;}</style></defs><title>Ресурс 15</title><g id="Слой_2" data-name="Слой 2"><g id="Layer_1" data-name="Layer 1"><path class="cls-1" d="M55.4,27.92q-4.8,4.75-9.59,9.51Q37.22,46,28.65,54.58c-.26.26-.49.55-.73.82h-.44Q22.73,50.6,18,45.81,9.41,37.22.82,28.65c-.26-.26-.55-.49-.82-.73v-.44Q4.8,22.73,9.59,18,18.18,9.41,26.75.82c.26-.26.49-.55.73-.82h.44q4.75,4.8,9.51,9.59Q46,18.18,54.58,26.75c.26.26.55.49.82.73ZM27.57,54.24,54.14,27.72,27.72,1.27,1.14,27.8Z"/><path class="cls-1" d="M27.59,12.77c.39.33.62.5.82.7Q35.13,20.22,41.86,27c.5.5.67.84.07,1.43q-6.87,6.83-13.69,13.71a6.79,6.79,0,0,1-.66.49Zm2.27,24,8.94-9.14-8.94-8.91Z"/></g></g></svg>