<svg xmlns="http://www.w3.org/2000/svg" viewBox="0 0 18.17 13.21"><defs><style>.cls-1{fill:#eb5e61;}</style></defs><title>Asset 28</title><g id="Layer_2" data-name="Layer 2"><g id="Layer_1-2" data-name="Layer 1"><path class="cls-1" d="M12.13,12.32a8.15,8.15,0,0,0,3.53-2.38l0,0a10.74,10.74,0,0,1-1.29.81,9.8,9.8,0,0,1-1.94.77,9.41,9.41,0,0,1-1.38.29L9.88,12a12.35,12.35,0,0,1-1.49,0,12,12,0,0,1-1.47-.16,9.8,9.8,0,0,1-4.21-1.72L2.5,9.93a8.35,8.35,0,0,0,1.61,1.43,8.48,8.48,0,0,0,1.93,1l-.3.39-.34.46a.08.08,0,0,1-.09,0,6.66,6.66,0,0,1-1-.11,8.35,8.35,0,0,1-1.88-.58A7.28,7.28,0,0,1,.72,11.45,6.25,6.25,0,0,1,0,10.78a.17.17,0,0,1,0-.1l.06-.74.06-.68c0-.25.06-.51.1-.77s.12-.71.19-1.07a19.63,19.63,0,0,1,.72-2.81,15.17,15.17,0,0,1,1-2.35c.1-.2.22-.39.33-.58a.34.34,0,0,1,.09-.08A8.4,8.4,0,0,1,4.16.67,8.21,8.21,0,0,1,6,.08L6.55,0a.07.07,0,0,1,.08.05L6.8.4A8,8,0,0,0,2.9,2.47l.07,0c.52-.24,1-.5,1.55-.73a9.36,9.36,0,0,1,1.77-.57C6.66,1.05,7,1,7.39.93A10.53,10.53,0,0,1,9.07.83c.41,0,.82,0,1.23.05a12,12,0,0,1,1.2.17,10.11,10.11,0,0,1,2.41.77c.44.19.86.41,1.29.61l.06,0A7.91,7.91,0,0,0,11.36.4L11.55,0s0,0,.07,0l.5.07a8.63,8.63,0,0,1,3.52,1.54.38.38,0,0,1,.09.09,11.3,11.3,0,0,1,.79,1.55,18.12,18.12,0,0,1,1,3c.12.5.22,1,.32,1.5s.13.79.18,1.19.08.77.12,1.16c0,.21,0,.41.05.62a.11.11,0,0,1,0,.08,6.76,6.76,0,0,1-1.87,1.49,8.27,8.27,0,0,1-2.2.79,6.17,6.17,0,0,1-1.21.16.11.11,0,0,1-.08,0Zm1.09-4.91a1.68,1.68,0,0,0,0-.2,1.65,1.65,0,0,0-.57-1.11,1.28,1.28,0,0,0-1-.31,1.34,1.34,0,0,0-1,.62,1.77,1.77,0,0,0-.31,1.22,1.7,1.7,0,0,0,.57,1.12,1.3,1.3,0,0,0,1.81-.06A1.74,1.74,0,0,0,13.22,7.41ZM5,7.46a2.06,2.06,0,0,0,0,.21,1.65,1.65,0,0,0,.57,1.1,1.31,1.31,0,0,0,1.82-.1,1.81,1.81,0,0,0,.13-2.32,1.33,1.33,0,0,0-1.21-.56,1.27,1.27,0,0,0-.83.39A1.79,1.79,0,0,0,5,7.46Z"/></g></g></svg>