<svg xmlns="http://www.w3.org/2000/svg" viewBox="0 0 16.64 20.33"><defs><style>.cls-1{fill:#fff;}</style></defs><title>Asset 15</title><g id="Layer_2" data-name="Layer 2"><g id="Layer_1-2" data-name="Layer 1"><path class="cls-1" d="M0,11.29v-.61a5.54,5.54,0,0,0,.07-.57A6.25,6.25,0,0,1,1.29,6.87,4.66,4.66,0,0,1,6.8,5.3l1,.37a1.81,1.81,0,0,0,1.39,0l1.24-.47a4.9,4.9,0,0,1,3.25-.08,4.43,4.43,0,0,1,2.43,1.76,4.52,4.52,0,0,0,.57,8V15c-.23.53-.45,1.08-.71,1.6a12,12,0,0,1-2,2.84,2.49,2.49,0,0,1-2.27.85,6.15,6.15,0,0,1-1.32-.42,4,4,0,0,0-3.27,0c-.28.11-.57.23-.86.33a2.3,2.3,0,0,1-2.41-.46,6.91,6.91,0,0,1-.76-.77A12.77,12.77,0,0,1,.27,13.18C.15,12.55.09,11.92,0,11.29Z"/><path class="cls-1" d="M8.35,4.59a4.34,4.34,0,0,1,4-4.59C12.67,2.27,10.47,4.84,8.35,4.59Z"/></g></g></svg>