<svg xmlns="http://www.w3.org/2000/svg" viewBox="0 0 18.39 17.94"><defs><style>.cls-1{fill:#fff;}</style></defs><title>Asset 13</title><g id="Layer_2" data-name="Layer 2"><g id="Layer_1-2" data-name="Layer 1"><path class="cls-1" d="M17.16,4.58a9.2,9.2,0,0,0-3.35-3.35A9,9,0,0,0,9.2,0,9,9,0,0,0,4.58,1.23,9.28,9.28,0,0,0,1.23,4.58,9,9,0,0,0,0,9.2a8.92,8.92,0,0,0,1.75,5.4,9,9,0,0,0,4.54,3.32.51.51,0,0,0,.47-.08.46.46,0,0,0,.16-.36s0-.24,0-.65V15.77l-.28.05a4,4,0,0,1-.66,0,4.76,4.76,0,0,1-.83-.08,2.1,2.1,0,0,1-.81-.36,1.57,1.57,0,0,1-.52-.74l-.12-.28a3.43,3.43,0,0,0-.38-.61,1.41,1.41,0,0,0-.52-.45l-.08-.06a.75.75,0,0,1-.16-.15A.76.76,0,0,1,2.44,13c0-.06,0-.1.06-.14a.76.76,0,0,1,.35-.05l.24,0a1.66,1.66,0,0,1,.59.29,1.91,1.91,0,0,1,.58.62,2.15,2.15,0,0,0,.67.75,1.42,1.42,0,0,0,.78.26,3.37,3.37,0,0,0,.68-.06,2.28,2.28,0,0,0,.54-.18,1.94,1.94,0,0,1,.59-1.24A8,8,0,0,1,6.29,13a4.79,4.79,0,0,1-1.12-.47,3.18,3.18,0,0,1-1-.8,4.12,4.12,0,0,1-.63-1.26,6.11,6.11,0,0,1-.24-1.79,3.49,3.49,0,0,1,.94-2.47,3.25,3.25,0,0,1,.09-2.44,1.69,1.69,0,0,1,1,.16,7.18,7.18,0,0,1,1,.46l.51.32a8.65,8.65,0,0,1,4.59,0L12,4.47a5.93,5.93,0,0,1,1.1-.53,1.58,1.58,0,0,1,1-.13,3.2,3.2,0,0,1,.1,2.44,3.49,3.49,0,0,1,.94,2.47,6.18,6.18,0,0,1-.24,1.8,3.91,3.91,0,0,1-.64,1.26,3.3,3.3,0,0,1-1,.79,4.79,4.79,0,0,1-1.12.47,8,8,0,0,1-1.23.21,2.12,2.12,0,0,1,.62,1.7v2.53a.49.49,0,0,0,.15.36.52.52,0,0,0,.48.08,9,9,0,0,0,4.53-3.32,8.92,8.92,0,0,0,1.75-5.4A9,9,0,0,0,17.16,4.58Z"/></g></g></svg>