<svg xmlns="http://www.w3.org/2000/svg" viewBox="0 0 15.57 19.58"><defs><style>.cls-1{fill:#fff;}</style></defs><title>Asset 14</title><g id="Layer_2" data-name="Layer 2"><g id="Layer_1-2" data-name="Layer 1"><path class="cls-1" d="M7.78,2.29c.06-.16.11-.3.17-.44A3.2,3.2,0,0,1,8.58.93,1.84,1.84,0,0,1,8.92.66.2.2,0,0,1,9,.63h.16a.08.08,0,0,0,.08,0L9.4.47A.65.65,0,0,1,10,.28a.13.13,0,0,0,.12,0L10.25.2a.56.56,0,0,1,.47-.06.33.33,0,0,0,.22,0l.17-.07a.53.53,0,0,1,.53.05s.06,0,.1,0,.2,0,.3-.06a.56.56,0,0,1,.45.13.23.23,0,0,0,.11,0h.3a.35.35,0,0,1,.23.12.13.13,0,0,0,.12,0,1.48,1.48,0,0,1,.42,0,.69.69,0,0,1,.4.24s0,0,.09,0a1.22,1.22,0,0,1,.27,0,.47.47,0,0,1,.37.63l-.07.18.06.1a.47.47,0,0,1,0,.53l-.08.12s0,.05,0,.08a.51.51,0,0,1,0,.42A2.07,2.07,0,0,1,14.5,3a.1.1,0,0,0,0,.09.61.61,0,0,1-.23.58l-.06,0s0,0,0,.07a.62.62,0,0,1-.23.49l-.25.19a.12.12,0,0,0-.06.08.64.64,0,0,1-.4.47L13,5.1s0,0,0,0a.53.53,0,0,1-.33.37l-.32.1.07,0a4.46,4.46,0,0,1,.75.54A2.76,2.76,0,0,1,14,7.59a3.7,3.7,0,0,1,.11.87.86.86,0,0,0,0,.16.06.06,0,0,0,0,0l.12.21,0,0a2.82,2.82,0,0,1,.93,1,3.08,3.08,0,0,1,.36,1.11A2.79,2.79,0,0,1,15.1,13c-.09.14-.2.26-.29.39a.18.18,0,0,0-.05.07,6.05,6.05,0,0,1-.33,1.1,3.07,3.07,0,0,0-.14.52,3.16,3.16,0,0,1-.85,1.56,3.32,3.32,0,0,1-.86.64c-.09.05-.19.08-.28.12l-.09.05a9,9,0,0,1-1.12.73,7.27,7.27,0,0,1-.76.33.35.35,0,0,0-.13.08,3.64,3.64,0,0,1-1.2.81,3.45,3.45,0,0,1-2.4,0,3.59,3.59,0,0,1-1.14-.73.91.91,0,0,0-.35-.22,6.29,6.29,0,0,1-1.5-.83l-.06,0a1.76,1.76,0,0,0-.42-.24,3,3,0,0,1-.9-.61,3.44,3.44,0,0,1-.84-1.26,3,3,0,0,1-.16-.66l0-.08-.28-.81c0-.14-.07-.29-.1-.43a.24.24,0,0,0-.07-.12,3.07,3.07,0,0,1-.66-1.23A2.86,2.86,0,0,1,.2,10.33a3.06,3.06,0,0,1,.71-1.1,2,2,0,0,1,.39-.31.27.27,0,0,0,.07-.08.69.69,0,0,0,.12-.42A3.34,3.34,0,0,1,1.82,7a2.73,2.73,0,0,1,.8-1c.18-.14.38-.26.56-.38l.07,0-.19-.06a.77.77,0,0,1-.19-.08.52.52,0,0,1-.27-.31.35.35,0,0,1,0-.06l-.12,0A1.11,1.11,0,0,1,2.28,5,.55.55,0,0,1,2,4.57a.22.22,0,0,0-.1-.13,1.3,1.3,0,0,1-.31-.26.62.62,0,0,1-.14-.39.08.08,0,0,0,0-.08l-.1-.09a.56.56,0,0,1-.18-.5.12.12,0,0,0,0-.13L1,2.87a.52.52,0,0,1-.08-.56l-.1-.15a.5.5,0,0,1,0-.57l0,0a.09.09,0,0,0,0-.11A.56.56,0,0,1,.77,1,.46.46,0,0,1,1,.73a.79.79,0,0,1,.37,0,.09.09,0,0,0,.11,0A.74.74,0,0,1,2,.4h.37a.11.11,0,0,0,.08,0A.5.5,0,0,1,2.85.2.86.86,0,0,0,3,.21.75.75,0,0,0,3.16.12a.75.75,0,0,1,.53,0l.15,0a.08.08,0,0,0,.08,0A.52.52,0,0,1,4.47.05l.21.09a.17.17,0,0,0,.12,0,.58.58,0,0,1,.32,0A.62.62,0,0,1,5.31.2l.05,0a.31.31,0,0,0,.23.05.63.63,0,0,1,.6.21.37.37,0,0,0,.15.13s.13,0,.2,0a.2.2,0,0,1,.11,0,2.35,2.35,0,0,1,.72.75,3.24,3.24,0,0,1,.39.82ZM12.13.55a2,2,0,0,0-.85.32.14.14,0,0,1,0-.21L11.3.57l0-.06a2.12,2.12,0,0,0-.71.46.26.26,0,0,1-.08-.34,1.73,1.73,0,0,0-.56.48C9.84,1,9.88.89,9.89.76a5.61,5.61,0,0,0-.64.65l0,0-.09-.24h0l0,0a3.47,3.47,0,0,0-.62.89,2,2,0,0,0-.2.71,1,1,0,0,0,.66,1.07,12.07,12.07,0,0,1,3.82-2s0,0,0,0l-.05,0c-.61.32-1.21.64-1.79,1a8.75,8.75,0,0,0-1.38,1l-.27.27a1.31,1.31,0,0,0,.43.71,1.9,1.9,0,0,0,.64.35,3.72,3.72,0,0,0,1.33.18h.07c-.1-.06-.2-.11-.23-.22l.09,0,.2,0,.42,0a1.18,1.18,0,0,0,.3-.1c-.1,0-.2-.06-.25-.17l.22-.07a2.58,2.58,0,0,0,.55-.2l.13-.08v0a.5.5,0,0,1-.35-.09l.07,0,.23-.12a2.33,2.33,0,0,0,.5-.31l.08-.07c-.13,0-.25,0-.37-.07A3.81,3.81,0,0,0,14,3.23c-.13,0-.25,0-.36,0l.07-.07.22-.2.24-.26a.63.63,0,0,0,.07-.12c-.15,0-.28.08-.42,0,0,0,0-.06.07-.08l.19-.16a1.26,1.26,0,0,0,.28-.33s0,0,0-.05a1.21,1.21,0,0,1-.38,0,1.09,1.09,0,0,1,.14-.37,3,3,0,0,1,.21-.33c-.31,0-.6,0-.91,0,.08-.1.16-.16.23-.25a1.41,1.41,0,0,0-.54,0L12.7,1s-.08,0-.09-.05a.36.36,0,0,1,0-.1l.09-.1.07-.07a4.2,4.2,0,0,0-.83.2c-.05-.06-.05-.1,0-.15l.1-.11ZM3.49.54v0l.06.06.11.11a.12.12,0,0,1,0,.08c0,.06,0,.09-.09.07L3.37.8A2.93,2.93,0,0,0,2.84.7.13.13,0,0,0,2.9.75L3,.81A.3.3,0,0,1,3,.92C3,1,3,1,2.91,1L2.83,1A2.15,2.15,0,0,0,2.22.89.78.78,0,0,0,2,.93L2.08,1a.75.75,0,0,1,.11.13c-.31,0-.6,0-.91,0a1.71,1.71,0,0,1,.35.7,1.7,1.7,0,0,1-.39,0,.3.3,0,0,1,0,.08,1.34,1.34,0,0,0,.3.33l.16.14.06.08a.51.51,0,0,1-.42,0,.69.69,0,0,0,.13.2l.39.37L2,3.18a.7.7,0,0,1-.35,0,3.45,3.45,0,0,0,.7.56c-.12.08-.24,0-.37.07a3.62,3.62,0,0,0,.88.53.33.33,0,0,1-.17.08H2.49a3,3,0,0,0,.9.37C3.34,5,3.24,5,3.13,5l.09,0a2.15,2.15,0,0,0,.44.09l.35,0a.19.19,0,0,1,.15.06.52.52,0,0,1-.1.11l-.13.1H4a4.59,4.59,0,0,0,.91-.06,2.6,2.6,0,0,0,.81-.28,1.46,1.46,0,0,0,.69-.83.11.11,0,0,0,0-.12L6,3.86A9.56,9.56,0,0,0,4.84,3,19.61,19.61,0,0,0,3,1.89l0,0,0,0a12,12,0,0,1,3.84,2l.21-.13A1,1,0,0,0,7.38,3a1.41,1.41,0,0,0-.09-.58A3.17,3.17,0,0,0,6.56,1.2a.46.46,0,0,1-.07-.07,1.13,1.13,0,0,0,0,.15c0,.05,0,.1-.08.13A5.61,5.61,0,0,0,5.73.76c0,.14,0,.27-.1.35A1.73,1.73,0,0,0,5.07.63.26.26,0,0,1,5,1a2,2,0,0,0-.7-.45.21.21,0,0,0,0,.06.33.33,0,0,1,.06.1c0,.08,0,.13,0,.19A2.16,2.16,0,0,0,3.49.54Zm9.07,10c0-.06,0-.15,0-.24s0-.09,0-.13A2.7,2.7,0,0,0,11.31,8.3,2.12,2.12,0,0,0,9.8,8a1.66,1.66,0,0,0-1.24.81,2,2,0,0,0-.25,1.48A2.63,2.63,0,0,0,9.48,12a2.23,2.23,0,0,0,1.46.39,1.71,1.71,0,0,0,1.19-.64A1.93,1.93,0,0,0,12.56,10.49ZM7.4,10a2,2,0,0,0-.15-.86A1.72,1.72,0,0,0,5.74,8.05a2,2,0,0,0-1.07.2A2.63,2.63,0,0,0,3.22,9.91a2.2,2.2,0,0,0,0,1.32,1.71,1.71,0,0,0,1.09,1.19,1.85,1.85,0,0,0,1.23,0,2.6,2.6,0,0,0,1.32-.91A2.55,2.55,0,0,0,7.4,10Zm.49,6.22a3.82,3.82,0,0,0,.4,0,2.21,2.21,0,0,0,1.37-.81,1.87,1.87,0,0,0,.26-2,2.07,2.07,0,0,0-1.09-1.05,2.31,2.31,0,0,0-1.37-.18,2.26,2.26,0,0,0-1.36.71,1.94,1.94,0,0,0,.14,2.78A2.38,2.38,0,0,0,7.89,16.25Zm3.28.77a2.23,2.23,0,0,0,1-.26,3.12,3.12,0,0,0,1-.81,2.35,2.35,0,0,0,.39-.67,2.8,2.8,0,0,0,.05-1.67,1.54,1.54,0,0,0-.19-.44.52.52,0,0,0-.24-.2.78.78,0,0,0-.52-.05,2.08,2.08,0,0,0-.53.23,4.53,4.53,0,0,0-1.08,1A3.37,3.37,0,0,0,10.25,16a1.25,1.25,0,0,0,.05.54.59.59,0,0,0,.38.4A1.4,1.4,0,0,0,11.17,17ZM1.88,14.24a3.5,3.5,0,0,0,.09.68,2.58,2.58,0,0,0,.59,1.15l.18.18A2.44,2.44,0,0,0,4.2,17a1.38,1.38,0,0,0,.64-.08.46.46,0,0,0,.25-.22.71.71,0,0,0,.08-.18,1.38,1.38,0,0,0,0-.57,3,3,0,0,0-.53-1.41,3.86,3.86,0,0,0-.75-.76,2.69,2.69,0,0,0-.77-.44,1.34,1.34,0,0,0-.66-.07.61.61,0,0,0-.5.4A1.7,1.7,0,0,0,1.88,14.24Zm6-6.38a4.71,4.71,0,0,0,.85-.09,2.09,2.09,0,0,0,.73-.28,1.05,1.05,0,0,0,.32-.31.6.6,0,0,0,.05-.62,1.14,1.14,0,0,0-.28-.38,2.33,2.33,0,0,0-.67-.43,2.38,2.38,0,0,0-1.34-.23,2.47,2.47,0,0,0-1.43.66,1.25,1.25,0,0,0-.28.37.42.42,0,0,0,0,.27A.8.8,0,0,0,6,7.23a1.72,1.72,0,0,0,.62.41A3.3,3.3,0,0,0,7.87,7.86Zm.08,9h0a4.57,4.57,0,0,0-1.27.17,2.44,2.44,0,0,0-.69.28,1.24,1.24,0,0,0-.22.18.28.28,0,0,0,0,.37,1.12,1.12,0,0,0,.19.24A2.8,2.8,0,0,0,7,18.81a2.39,2.39,0,0,0,1.4.1,3,3,0,0,0,1.09-.53,1.83,1.83,0,0,0,.48-.48.82.82,0,0,0,.09-.19.25.25,0,0,0,0-.26.65.65,0,0,0-.2-.17,2.49,2.49,0,0,0-.33-.16A4.19,4.19,0,0,0,8,16.89ZM2.46,10.38c0-.11,0-.27,0-.44a1.08,1.08,0,0,0-.13-.43.3.3,0,0,0-.12-.15.23.23,0,0,0-.26,0,2.24,2.24,0,0,0-.95,1,2.41,2.41,0,0,0-.08,1.88,1.87,1.87,0,0,0,.5.79.23.23,0,0,0,.35,0,1.07,1.07,0,0,0,.14-.16,2.75,2.75,0,0,0,.2-.38A6.58,6.58,0,0,0,2.46,10.38Zm10.66,0v.06a7.39,7.39,0,0,0,.15,1.15,4.65,4.65,0,0,0,.3,1,1.17,1.17,0,0,0,.19.3.79.79,0,0,0,.15.12.2.2,0,0,0,.25,0,2.1,2.1,0,0,0,.24-.27,2.38,2.38,0,0,0,.4-1.83,2.23,2.23,0,0,0-1.13-1.59.23.23,0,0,0-.29,0,.48.48,0,0,0-.12.16,1.71,1.71,0,0,0-.09.3A2.89,2.89,0,0,0,13.12,10.43ZM10.77,5.94l-.23,0a2.58,2.58,0,0,0-.29,0c-.07,0-.1,0-.08.12a.37.37,0,0,0,.05.11,1.4,1.4,0,0,0,.1.16c.14.16.27.32.42.47a12.69,12.69,0,0,0,1.09,1,8.6,8.6,0,0,0,.93.65c.11.07.24.12.36.18a.32.32,0,0,0,.14,0c.07,0,.11,0,.12-.1v0a3,3,0,0,0-.09-.79,2.3,2.3,0,0,0-1.35-1.59A3,3,0,0,0,10.77,5.94ZM2.28,8.31v.2c0,.09.06.14.15.12a.66.66,0,0,0,.2-.06,3.83,3.83,0,0,0,.44-.25,11.19,11.19,0,0,0,2-1.69,2.36,2.36,0,0,0,.34-.44.61.61,0,0,0,.07-.14c0-.06,0-.1-.08-.11l-.14,0A3,3,0,0,0,4.15,6a2.31,2.31,0,0,0-1.4.9A2.53,2.53,0,0,0,2.28,8.31Z"/></g></g></svg>