<svg xmlns="http://www.w3.org/2000/svg" viewBox="0 0 35.72 35.83"><defs><style>.cls-1{fill:#fff;}</style></defs><title>Ресурс 9</title><g id="Слой_2" data-name="Слой 2"><g id="Layer_1" data-name="Layer 1"><path class="cls-1" d="M35.72,0s0,.07,0,.1q0,8.37,0,16.74c0,.15,0,.15-.15.15l-4.28,0L29,17l-2.27,0-4.26,0-4.82,0H16.38V2.83l.51-.08,1.55-.23,1.42-.21,1.3-.19,1.4-.2L24,1.73l1.41-.21,1.56-.23,1.54-.22L29.91.86,31.19.67,32.62.46,34,.26,35.46,0l.24,0Z"/><path class="cls-1" d="M0,5.08.61,5,2,4.81l1.39-.19,1.13-.15,1.11-.15,1.26-.17L8.15,4,9.41,3.8l1.25-.17,1.26-.17,1.25-.17,1.27-.17.16,0s0,.08,0,.11q0,6.92,0,13.83c0,.12,0,.12-.12.12l-3.06,0-3.2,0-3.13,0-3.19,0H0s0-.09,0-.13q0-4.4,0-8.79c0-.05,0-.1,0-.15Z"/><path class="cls-1" d="M16.36,33.1V18.91h7.7l10,0h1.58c.13,0,.13,0,.13.13q0,4,0,8,0,4.31,0,8.61s0,.08,0,.14Z"/><path class="cls-1" d="M0,18.71H.26l4.06,0,2.75,0,5.47,0h1.93c.09,0,.12,0,.12.11,0,.82,0,1.64,0,2.47q0,5.68,0,11.37s0,.08,0,.13l-.39,0-1.54-.21-1.36-.19-1.25-.17L8.7,32.07,7.44,31.9l-1.24-.17-1.37-.19L3.6,31.37,2.33,31.2,1,31l-.84-.11c-.09,0-.11,0-.11-.13q0-3.3,0-6.6,0-2.66,0-5.32S0,18.76,0,18.71Z"/></g></g></svg>