<svg xmlns="http://www.w3.org/2000/svg" viewBox="0 0 88.79 22.38"><defs><style>.cls-1{fill:#4d4d4d;}</style></defs><title>Ресурс 2</title><g id="Слой_2" data-name="Слой 2"><g id="Layer_1" data-name="Layer 1"><path class="cls-1" d="M11,8.37h4.85V21.92H11V20.44a5.06,5.06,0,0,1-4.21,1.94,6.49,6.49,0,0,1-4.88-2.15,6.84,6.84,0,0,1-1.94-5A7.5,7.5,0,0,1,2.09,9.82,7,7,0,0,1,7,7.91,5.36,5.36,0,0,1,11,9.67ZM5.94,12.92a3.17,3.17,0,0,0-1,2.21,3.13,3.13,0,0,0,.94,2.21,3.41,3.41,0,0,0,2.18.91,3.11,3.11,0,0,0,2.18-.94,2.94,2.94,0,0,0,.91-2.18,3,3,0,0,0-.94-2.21,3.07,3.07,0,0,0-4.31,0Z"/><path class="cls-1" d="M24.32,14.55,18.83,8.37h6.31l2.33,2.79,2.4-2.79h6.28l-5.61,6.19,6.79,7.37H30.9l-3.46-4-3.46,4H17.56Z"/><path class="cls-1" d="M41.42,0a2.73,2.73,0,1,1-2.73,2.73A2.72,2.72,0,0,1,41.42,0Zm2.43,8.37V21.92H39V8.37Z"/><path class="cls-1" d="M60.8,20.13a8.13,8.13,0,0,1-6.06,2.24,8.13,8.13,0,0,1-6-2.24,6.76,6.76,0,0,1-2.09-5,6.7,6.7,0,0,1,2.09-5,8.46,8.46,0,0,1,6-2.24,8.56,8.56,0,0,1,6.06,2.24,6.7,6.7,0,0,1,2.09,5A6.76,6.76,0,0,1,60.8,20.13Zm-8.22-7.22a3.09,3.09,0,0,0,2.18,5.28,3.08,3.08,0,0,0,2.15-.91,3,3,0,0,0,.94-2.15,3.29,3.29,0,0,0-.94-2.21,3.11,3.11,0,0,0-4.34,0Z"/><path class="cls-1" d="M65.68,8.37h4.85V10A5.21,5.21,0,0,1,74.6,8.13a5.52,5.52,0,0,1,2.61.61,4.23,4.23,0,0,1,1.88,1.94,4.76,4.76,0,0,1,1.85-1.88,5.49,5.49,0,0,1,2.82-.67,5.39,5.39,0,0,1,3.76,1.24,5,5,0,0,1,1.27,3.73v8.82H83.93v-6.7c0-1.43-.15-2.4-.7-2.91A1.77,1.77,0,0,0,82,11.85a2,2,0,0,0-1.42.55A3.46,3.46,0,0,0,79.66,15v6.94H74.81v-6.7c0-1.3-.09-2.33-.64-2.91a1.88,1.88,0,0,0-1.46-.55,1.71,1.71,0,0,0-1.33.49,4,4,0,0,0-.85,3v6.7H65.68Z"/></g></g></svg>