<svg xmlns="http://www.w3.org/2000/svg" viewBox="0 0 43.3 42.24"><defs><style>.cls-1{fill:#fff;}</style></defs><title>Ресурс 2</title><g id="Слой_2" data-name="Слой 2"><g id="Layer_1" data-name="Layer 1"><path class="cls-1" d="M40.4,10.78A21.56,21.56,0,0,0,32.52,2.9,21.18,21.18,0,0,0,21.65,0,21.18,21.18,0,0,0,10.78,2.9,21.55,21.55,0,0,0,2.9,10.78,21.18,21.18,0,0,0,0,21.65,21,21,0,0,0,4.13,34.38,21.2,21.2,0,0,0,14.8,42.2a1.26,1.26,0,0,0,1.13-.2,1.1,1.1,0,0,0,.37-.85q0-.08,0-1.52t0-2.51l-.65.11a8.27,8.27,0,0,1-1.56.1,11.92,11.92,0,0,1-2-.2,4.38,4.38,0,0,1-1.89-.85A3.58,3.58,0,0,1,9,34.56l-.28-.65a7,7,0,0,0-.89-1.44A3.4,3.4,0,0,0,6.57,31.4l-.2-.14A2.07,2.07,0,0,1,6,30.92a1.55,1.55,0,0,1-.25-.39q-.08-.2.14-.32a1.83,1.83,0,0,1,.82-.13l.56.08a4.12,4.12,0,0,1,1.4.68A4.55,4.55,0,0,1,10,32.31a5,5,0,0,0,1.56,1.76,3.32,3.32,0,0,0,1.85.61,8,8,0,0,0,1.61-.14,5.61,5.61,0,0,0,1.27-.42,4.57,4.57,0,0,1,1.38-2.9,19.3,19.3,0,0,1-2.89-.51,11.5,11.5,0,0,1-2.65-1.1,7.59,7.59,0,0,1-2.27-1.89,9.08,9.08,0,0,1-1.48-3,14.08,14.08,0,0,1-.58-4.23,8.22,8.22,0,0,1,2.23-5.81A7.58,7.58,0,0,1,10.26,9a4,4,0,0,1,2.42.38A17,17,0,0,1,15,10.43q.75.45,1.2.76a20.36,20.36,0,0,1,10.83,0l1.07-.68a15.17,15.17,0,0,1,2.59-1.24A3.69,3.69,0,0,1,33,9a7.51,7.51,0,0,1,.23,5.75,8.22,8.22,0,0,1,2.23,5.81,14.23,14.23,0,0,1-.58,4.24,8.72,8.72,0,0,1-1.49,3,7.88,7.88,0,0,1-2.28,1.87,11.53,11.53,0,0,1-2.65,1.1,19.28,19.28,0,0,1-2.89.51,5,5,0,0,1,1.47,4v5.95a1.12,1.12,0,0,0,.35.85,1.22,1.22,0,0,0,1.11.2,21.2,21.2,0,0,0,10.67-7.82A21,21,0,0,0,43.3,21.65,21.19,21.19,0,0,0,40.4,10.78Z"/></g></g></svg>