<svg xmlns="http://www.w3.org/2000/svg" viewBox="0 0 342.53 131.12"><defs><style>.cls-1{opacity:0.6;}.cls-2{fill:none;stroke:#fff;stroke-linecap:round;stroke-linejoin:round;stroke-width:3px;}</style></defs><title>Ресурс 2</title><g id="Слой_2" data-name="Слой 2"><g id="Layer_1" data-name="Layer 1"><line class="cls-2" x1="163.34" y1="91.16" x2="188.34" y2="91.16"/><line class="cls-2" x1="193.32" y1="91.16" x2="201.33" y2="91.16"/><line class="cls-2" x1="173.23" y1="86.25" x2="198.23" y2="86.25"/><line class="cls-2" x1="185.24" y1="81.34" x2="193.25" y2="81.34"/><path class="cls-2" d="M1351.54,1193.69a17.74,17.74,0,0,1-10.18-16.05" transform="translate(-1119.68 -1078.24)"/><path class="cls-2" d="M1355.54,1139.13a3.55,3.55,0,1,1,7.1,0" transform="translate(-1119.68 -1078.24)"/><path class="cls-2" d="M1362.64,1143a3.55,3.55,0,1,1,7.1,0" transform="translate(-1119.68 -1078.24)"/><path class="cls-2" d="M1369.74,1149.18a3.55,3.55,0,0,1,7.1,0" transform="translate(-1119.68 -1078.24)"/><path class="cls-2" d="M1348.45,1143a3.55,3.55,0,0,1,7.1,0" transform="translate(-1119.68 -1078.24)"/><path class="cls-2" d="M1341.35,1159.52" transform="translate(-1119.68 -1078.24)"/><path class="cls-2" d="M1341.35,1159.52" transform="translate(-1119.68 -1078.24)"/><line class="cls-2" x1="235.86" y1="60.9" x2="235.86" y2="85.33"/><line class="cls-2" x1="242.96" y1="61.18" x2="242.96" y2="85.33"/><line class="cls-2" x1="250.06" y1="64.73" x2="250.06" y2="87.09"/><line class="cls-2" x1="228.77" y1="64.72" x2="228.77" y2="92.38"/><path class="cls-2" d="M1366.66,1194.06a17.74,17.74,0,0,0,10.18-16.05v-28.83" transform="translate(-1119.68 -1078.24)"/><path class="cls-2" d="M1348.45,1159.52a3.55,3.55,0,0,0-3.55-3.55h-3.55v22" transform="translate(-1119.68 -1078.24)"/><path class="cls-2" d="M1348.45,1170.62a9.74,9.74,0,0,1,9.74,9.74" transform="translate(-1119.68 -1078.24)"/><polyline class="cls-2" points="250.85 113.33 250.85 128.55 227.98 128.55 227.98 112.96"/><line class="cls-2" x1="231.16" y1="124.75" x2="241.08" y2="124.75"/><line class="cls-2" x1="257" y1="102.12" x2="251.38" y2="102.12"/><line class="cls-2" x1="256.42" y1="104.77" x2="247.49" y2="104.77"/><line class="cls-2" x1="255.42" y1="107.43" x2="250.28" y2="107.43"/><path class="cls-2" d="M1246.1,1150.55a28,28,0,1,1-21,38.82" transform="translate(-1119.68 -1078.24)"/><line class="cls-2" x1="138.46" y1="91.16" x2="152.8" y2="91.16"/><path class="cls-2" d="M1245.21,1150.72a28,28,0,1,1-20.32,38" transform="translate(-1119.68 -1078.24)"/><circle class="cls-2" cx="131.18" cy="99.95" r="4.2"/><line class="cls-2" x1="146.78" y1="95.75" x2="158.82" y2="95.75"/><rect class="cls-2" x="167.61" y="108.52" width="49.22" height="19.77"/><line class="cls-2" x1="216.83" y1="118.41" x2="179.53" y2="118.41"/><line class="cls-2" x1="179.53" y1="108.52" x2="179.53" y2="128.29"/><line class="cls-2" x1="179.53" y1="113.24" x2="173.62" y2="113.24"/><line class="cls-2" x1="179.53" y1="116.92" x2="175.84" y2="116.92"/><circle class="cls-2" cx="211.59" cy="113.42" r="0.97"/><circle class="cls-2" cx="211.59" cy="123.4" r="0.97"/><path class="cls-2" d="M1259.51,1101.71a22,22,0,0,1,43.94,0" transform="translate(-1119.68 -1078.24)"/><line class="cls-2" x1="150.82" y1="23.8" x2="159.4" y2="49.51"/><path class="cls-2" d="M1281.49,1102s0,.06,0,.09" transform="translate(-1119.68 -1078.24)"/><path class="cls-2" d="M1270.5,1102a5.49,5.49,0,0,1,11-.09" transform="translate(-1119.68 -1078.24)"/><path class="cls-2" d="M1277.25,1128.64l-17.74-26.6a5.5,5.5,0,1,1,11,0" transform="translate(-1119.68 -1078.24)"/><path class="cls-2" d="M1281.49,1102a5.49,5.49,0,0,1,11,.09" transform="translate(-1119.68 -1078.24)"/><path class="cls-2" d="M1281.49,1102s0,.06,0,.09v25.32" transform="translate(-1119.68 -1078.24)"/><path class="cls-2" d="M1285.73,1128.64l17.73-26.6a5.5,5.5,0,1,0-11,0" transform="translate(-1119.68 -1078.24)"/><line class="cls-2" x1="172.79" y1="23.8" x2="164.23" y2="49.51"/><path class="cls-2" d="M1277.25,1128.64a7.64,7.64,0,1,0,8.48,0" transform="translate(-1119.68 -1078.24)"/><path class="cls-2" d="M1279.08,1127.75a7.62,7.62,0,0,1,2.41-.4" transform="translate(-1119.68 -1078.24)"/><path class="cls-2" d="M1285.73,1128.64a7.61,7.61,0,0,0-1.82-.89" transform="translate(-1119.68 -1078.24)"/><path class="cls-2" d="M1277.25,1128.64a7.61,7.61,0,0,1,1.82-.89" transform="translate(-1119.68 -1078.24)"/><path class="cls-2" d="M1283.91,1127.75a7.62,7.62,0,0,0-2.41-.4h0" transform="translate(-1119.68 -1078.24)"/><line class="cls-2" x1="154.56" y1="54.35" x2="160.6" y2="54.35"/><line class="cls-2" x1="154.17" y1="57.27" x2="157.93" y2="57.27"/><path class="cls-2" d="M1313,1099.9a12.53,12.53,0,1,1,25.07,0" transform="translate(-1119.68 -1078.24)"/><line class="cls-2" x1="199.59" y1="21.85" x2="204.48" y2="36.52"/><path class="cls-2" d="M1325.53,1100s0,0,0,0" transform="translate(-1119.68 -1078.24)"/><path class="cls-2" d="M1319.27,1100.09a3.13,3.13,0,0,1,6.27,0" transform="translate(-1119.68 -1078.24)"/><path class="cls-2" d="M1323.12,1115.26,1313,1100.09a3.13,3.13,0,1,1,6.27,0" transform="translate(-1119.68 -1078.24)"/><path class="cls-2" d="M1325.53,1100a3.13,3.13,0,0,1,6.27,0" transform="translate(-1119.68 -1078.24)"/><path class="cls-2" d="M1325.53,1100s0,0,0,0v14.44" transform="translate(-1119.68 -1078.24)"/><path class="cls-2" d="M1328,1115.26l10.12-15.18a3.13,3.13,0,1,0-6.27,0" transform="translate(-1119.68 -1078.24)"/><line class="cls-2" x1="212.12" y1="21.85" x2="207.23" y2="36.52"/><path class="cls-2" d="M1323.12,1115.26a4.36,4.36,0,1,0,4.84,0" transform="translate(-1119.68 -1078.24)"/><path class="cls-2" d="M1324.16,1114.76a4.35,4.35,0,0,1,1.38-.23" transform="translate(-1119.68 -1078.24)"/><path class="cls-2" d="M1328,1115.26a4.34,4.34,0,0,0-1-.51" transform="translate(-1119.68 -1078.24)"/><path class="cls-2" d="M1323.12,1115.26a4.34,4.34,0,0,1,1-.51" transform="translate(-1119.68 -1078.24)"/><path class="cls-2" d="M1326.91,1114.76a4.35,4.35,0,0,0-1.38-.23h0" transform="translate(-1119.68 -1078.24)"/><line class="cls-2" x1="201.72" y1="39.28" x2="205.17" y2="39.28"/><line class="cls-2" x1="201.5" y1="40.94" x2="203.64" y2="40.94"/><circle class="cls-2" cx="288.35" cy="55.42" r="14.4"/><circle class="cls-2" cx="288.35" cy="55.42" r="3.05"/><polyline class="cls-2" points="286.37 41.15 286.37 36.76 290.7 36.76 290.7 41.21"/><polyline class="cls-2" points="275.01 50 271.2 47.81 273.37 44.05 277.22 46.28"/><polyline class="cls-2" points="276.99 64.27 273.18 66.47 271.02 62.72 274.87 60.49"/><polyline class="cls-2" points="290.34 69.69 290.34 74.08 286 74.08 286 69.63"/><polyline class="cls-2" points="301.7 60.84 305.51 63.03 303.34 66.79 299.49 64.56"/><polyline class="cls-2" points="299.73 46.57 304.04 44.08 306.2 47.83 301.84 50.35"/><line class="cls-2" x1="322.07" y1="56.8" x2="322.07" y2="80.37"/><line class="cls-2" x1="322.07" y1="31.06" x2="322.07" y2="44.58"/><line class="cls-2" x1="336.29" y1="31.06" x2="336.29" y2="80.37"/><circle class="cls-2" cx="322.07" cy="50.69" r="2.54"/><line class="cls-2" x1="329.18" y1="73.11" x2="329.18" y2="80.37"/><line class="cls-2" x1="329.18" y1="31.06" x2="329.18" y2="60.55"/><circle class="cls-2" cx="329.18" cy="66.83" r="2.54"/><rect class="cls-2" x="265.71" y="88.75" width="75.32" height="40.87"/><line class="cls-2" x1="265.71" y1="97.11" x2="341.03" y2="97.11"/><polyline class="cls-2" points="320.39 97.11 265.81 97.11 265.81 88.75 341.03 88.75 341.03 97.11 320.39 97.11"/><rect class="cls-2" x="265.81" y="121.26" width="75.22" height="8.36"/><polygon class="cls-2" points="267.51 121.26 284.83 121.26 286.89 121.26 340.72 97.39 341.03 97.11 320.62 97.11 266.15 121.26 267.51 121.26"/><polyline class="cls-2" points="274.17 97.11 265.81 97.11 265.81 121.26 274.17 121.26"/><line class="cls-2" x1="274.16" y1="97.11" x2="282.52" y2="97.11"/><line class="cls-2" x1="282.52" y1="121.26" x2="274.16" y2="121.26"/><line class="cls-2" x1="274.16" y1="97.11" x2="274.16" y2="117.71"/><line class="cls-2" x1="290.88" y1="97.11" x2="282.52" y2="97.11"/><line class="cls-2" x1="282.52" y1="121.26" x2="290.88" y2="121.26"/><line class="cls-2" x1="282.52" y1="114" x2="282.52" y2="97.11"/><line class="cls-2" x1="290.88" y1="97.11" x2="299.24" y2="97.11"/><line class="cls-2" x1="299.24" y1="121.26" x2="290.88" y2="121.26"/><line class="cls-2" x1="290.88" y1="119.49" x2="290.88" y2="121.26"/><line class="cls-2" x1="290.88" y1="97.11" x2="290.88" y2="110.3"/><line class="cls-2" x1="299.24" y1="121.26" x2="307.6" y2="121.26"/><line class="cls-2" x1="307.6" y1="97.11" x2="299.24" y2="97.11"/><line class="cls-2" x1="299.24" y1="106.59" x2="299.24" y2="97.11"/><line class="cls-2" x1="299.24" y1="121.26" x2="299.24" y2="115.79"/><line class="cls-2" x1="315.95" y1="121.26" x2="307.6" y2="121.26"/><line class="cls-2" x1="307.6" y1="97.11" x2="315.95" y2="97.11"/><line class="cls-2" x1="307.6" y1="112.08" x2="307.6" y2="121.26"/><line class="cls-2" x1="307.6" y1="97.11" x2="307.6" y2="102.66"/><line class="cls-2" x1="324.31" y1="97.11" x2="315.95" y2="97.11"/><line class="cls-2" x1="315.95" y1="121.26" x2="324.31" y2="121.26"/><line class="cls-2" x1="315.95" y1="99.18" x2="315.95" y2="97.11"/><line class="cls-2" x1="315.95" y1="121.26" x2="315.95" y2="108.37"/><line class="cls-2" x1="324.31" y1="97.11" x2="332.67" y2="97.11"/><line class="cls-2" x1="332.67" y1="121.26" x2="324.31" y2="121.26"/><line class="cls-2" x1="324.31" y1="104.67" x2="324.31" y2="121.26"/><polyline class="cls-2" points="332.67 121.26 341.03 121.26 341.03 97.11 332.67 97.11"/><line class="cls-2" x1="332.67" y1="121.26" x2="332.67" y2="100.96"/><circle class="cls-2" cx="269.99" cy="92.75" r="0.54"/><circle class="cls-2" cx="336.85" cy="92.75" r="0.54"/><circle class="cls-2" cx="270.16" cy="125.62" r="0.54"/><circle class="cls-2" cx="337.02" cy="125.62" r="0.54"/><rect class="cls-2" x="1.5" y="20.97" width="120.37" height="85.85" rx="7" ry="7"/><rect class="cls-2" x="7.01" y="26.43" width="109.34" height="61.09"/><line class="cls-2" x1="121.87" y1="92.95" x2="1.5" y2="92.95"/><rect class="cls-2" x="48.33" y="106.82" width="26.72" height="14.04"/><rect class="cls-2" x="43.85" y="120.87" width="35.67" height="4.14"/><circle class="cls-2" cx="61.83" cy="100.1" r="2.58"/><rect class="cls-2" x="21.29" y="35.34" width="10.76" height="36.01"/><rect class="cls-2" x="89.69" y="35.34" width="10.76" height="36.01"/><polyline class="cls-2" points="32.04 41.81 37.18 41.81 43.75 35.24 77.25 32.57 89.69 45.01"/><path class="cls-2" d="M1184.66,1123.6l-2.84,2.84a6.12,6.12,0,0,1-8.65,0l-4.32-4.32,9.86-9.86" transform="translate(-1119.68 -1078.24)"/><polyline class="cls-2" points="64.98 45.37 70.67 45.37 88.32 63.01"/><path class="cls-2" d="M1208,1141.25a4.32,4.32,0,0,1-6.11,6.11" transform="translate(-1119.68 -1078.24)"/><path class="cls-2" d="M1195.78,1153.46a4.32,4.32,0,1,0,6.11-6.11l-7.33-7.33" transform="translate(-1119.68 -1078.24)"/><path class="cls-2" d="M1194.09,1151.77a3.47,3.47,0,0,1-4.9,4.9l-2.67-2.67" transform="translate(-1119.68 -1078.24)"/><polyline class="cls-2" points="76.1 75.23 74.41 73.53 68.11 67.24"/><path class="cls-2" d="M1182.61,1148.26a4.32,4.32,0,0,0-6.11-6.11l-7.33,7.33" transform="translate(-1119.68 -1078.24)"/><polyline class="cls-2" points="62.93 70.02 61.23 71.72 54.94 78.01"/><path class="cls-2" d="M1174.62,1156.25a4.32,4.32,0,0,1-6.11-6.11l7.33-7.33" transform="translate(-1119.68 -1078.24)"/><path class="cls-2" d="M1176.31,1154.55a3.47,3.47,0,1,0,4.9,4.9l4.6-4.6a3.47,3.47,0,0,0-4.9-4.9" transform="translate(-1119.68 -1078.24)"/><polygon class="cls-2" points="54.94 78.01 56.63 76.31 62.93 70.02 54.94 78.01"/><path class="cls-2" d="M1167.76,1138.67l-2.73,2.73a3.47,3.47,0,1,1-4.9-4.9l2.73-2.73a3.47,3.47,0,0,1,4.9,4.9Z" transform="translate(-1119.68 -1078.24)"/><path class="cls-2" d="M1176.5,1142.15a4.32,4.32,0,0,0-6.11-6.11l-2.63,2.63-2.73,2.73-2.63,2.63a4.32,4.32,0,0,0,6.11,6.11" transform="translate(-1119.68 -1078.24)"/><line class="cls-2" x1="32.04" y1="65.59" x2="42.03" y2="65.59"/><line class="cls-2" x1="100.44" y1="39.71" x2="97.07" y2="39.71"/><line class="cls-2" x1="94.26" y1="43.29" x2="97.07" y2="43.29"/><line class="cls-2" x1="89.69" y1="49.62" x2="96.37" y2="49.62"/><line class="cls-2" x1="100.44" y1="52.99" x2="97.07" y2="52.99"/><line class="cls-2" x1="93.03" y1="52.99" x2="89.69" y2="52.99"/><line class="cls-2" x1="94.26" y1="62.34" x2="100.44" y2="62.34"/><line class="cls-2" x1="32.04" y1="45.75" x2="26.67" y2="45.75"/><line class="cls-2" x1="24.31" y1="49.27" x2="28.32" y2="49.27"/><line class="cls-2" x1="26.98" y1="52.43" x2="32.04" y2="52.43"/><line class="cls-2" x1="21.29" y1="63.4" x2="24.31" y2="63.4"/><line class="cls-2" x1="27.33" y1="63.4" x2="28.32" y2="63.4"/></g></g></svg>