<svg xmlns="http://www.w3.org/2000/svg" viewBox="0 0 44.58 42.07"><defs><style>.cls-1{fill:#eb5e61;}</style></defs><title>Ресурс 1</title><g id="Слой_2" data-name="Слой 2"><g id="Layer_1" data-name="Layer 1"><path class="cls-1" d="M36.17,40.57,22.68,33a.8.8,0,0,0-.78,0L8.41,40.57a.8.8,0,0,0,.39,1.5h27a.8.8,0,0,0,.39-1.5Z"/><path class="cls-1" d="M44.47,36.36,37.61,24.59a.8.8,0,0,0-1.08-.29l-7.08,4a.8.8,0,0,0,0,1.4l13.94,7.81a.8.8,0,0,0,1.08-1.1Z"/><path class="cls-1" d="M15.55,29a.8.8,0,0,0-.41-.7l-7.08-4A.8.8,0,0,0,7,24.59L.11,36.36a.8.8,0,0,0,1.08,1.1l13.95-7.81A.8.8,0,0,0,15.55,29Z"/><path class="cls-1" d="M11.6,19.13,21.9,24.9a.8.8,0,0,0,.78,0L33,19.14a.8.8,0,0,0,.3-1.1L23,.38a.8.8,0,0,0-.7-.38.83.83,0,0,0-.7.41L11.3,18a.8.8,0,0,0,.3,1.1Z"/></g></g></svg>