<svg xmlns="http://www.w3.org/2000/svg" viewBox="0 0 36.65 46.09"><defs><style>.cls-1{fill:#fff;}</style></defs><title>Ресурс 7</title><g id="Слой_2" data-name="Слой 2"><g id="Layer_1" data-name="Layer 1"><path class="cls-1" d="M18.32,5.39c.14-.36.26-.7.41-1A6.91,6.91,0,0,1,20.2,2.19a5.08,5.08,0,0,1,.8-.63.41.41,0,0,1,.27-.08h.37a.21.21,0,0,0,.19-.08l.3-.3A1.53,1.53,0,0,1,23.59.66a.39.39,0,0,0,.29,0l.27-.15a1.31,1.31,0,0,1,1.1-.15.66.66,0,0,0,.51,0c.13-.07.27-.12.41-.17A1.22,1.22,0,0,1,27.4.24a.26.26,0,0,0,.25,0,5.66,5.66,0,0,1,.69-.15,1.39,1.39,0,0,1,1.07.3.34.34,0,0,0,.24.07,5.39,5.39,0,0,1,.71,0,.82.82,0,0,1,.54.29.29.29,0,0,0,.28.1,3.3,3.3,0,0,1,1,.06,1.61,1.61,0,0,1,.94.57c.06.08.12.07.2.07a3.61,3.61,0,0,1,.64,0,1.1,1.1,0,0,1,.88,1.48c0,.14-.1.27-.15.41l.14.23a1.13,1.13,0,0,1,0,1.26,2.58,2.58,0,0,1-.19.28.17.17,0,0,0,0,.19,1.1,1.1,0,0,1-.08,1,5.34,5.34,0,0,1-.39.57.25.25,0,0,0-.07.21,1.38,1.38,0,0,1-.54,1.36l-.14.11a.15.15,0,0,0-.07.15,1.45,1.45,0,0,1-.54,1.16,6.25,6.25,0,0,1-.58.44.3.3,0,0,0-.14.19,1.5,1.5,0,0,1-.94,1.11c-.18.08-.37.14-.56.21l0,.07a1.24,1.24,0,0,1-.79.86c-.23.09-.47.16-.73.25l.16.1a10.45,10.45,0,0,1,1.76,1.27,6.46,6.46,0,0,1,1.95,3.32,9.24,9.24,0,0,1,.26,2c0,.12,0,.24,0,.36a.25.25,0,0,0,0,.1l.28.5a.28.28,0,0,0,.09.08,6.53,6.53,0,0,1,2.2,2.46A7.15,7.15,0,0,1,36.6,26a6.57,6.57,0,0,1-1.06,4.49c-.21.32-.46.61-.68.91a.45.45,0,0,0-.1.16A14.47,14.47,0,0,1,34,34.18a8,8,0,0,0-.31,1.22,7.54,7.54,0,0,1-2,3.67,7.9,7.9,0,0,1-2,1.52c-.21.11-.44.19-.65.28a1.13,1.13,0,0,0-.22.12,20.07,20.07,0,0,1-2.64,1.7,13.63,13.63,0,0,1-1.78.78.82.82,0,0,0-.31.2,8.47,8.47,0,0,1-2.83,1.89,7.61,7.61,0,0,1-2.72.52,7.76,7.76,0,0,1-2.92-.49,8.12,8.12,0,0,1-2.69-1.72,2.34,2.34,0,0,0-.82-.51A15.24,15.24,0,0,1,8.5,41.42l-.14-.1a4.37,4.37,0,0,0-1-.58,7,7,0,0,1-2.1-1.43,7.7,7.7,0,0,1-2-3,7.62,7.62,0,0,1-.39-1.54,1.13,1.13,0,0,0-.05-.21c-.22-.63-.45-1.27-.66-1.9-.11-.33-.17-.67-.25-1a.66.66,0,0,0-.15-.3A7.06,7.06,0,0,1,.22,28.52a6.79,6.79,0,0,1,.26-4.2,7.28,7.28,0,0,1,1.65-2.58A5.16,5.16,0,0,1,3.05,21a.66.66,0,0,0,.18-.19,1.63,1.63,0,0,0,.28-1,7.94,7.94,0,0,1,.78-3.42,6.4,6.4,0,0,1,1.89-2.25c.42-.32.88-.6,1.31-.89l.15-.1L7.21,13a3.83,3.83,0,0,1-.46-.19,1.18,1.18,0,0,1-.62-.73l0-.14-.27-.09a4.62,4.62,0,0,1-.46-.2,1.4,1.4,0,0,1-.75-.95.46.46,0,0,0-.23-.31,2.75,2.75,0,0,1-.72-.61,1.36,1.36,0,0,1-.34-.92.21.21,0,0,0-.09-.19A2,2,0,0,1,3,8.53a1.33,1.33,0,0,1-.43-1.19A.33.33,0,0,0,2.47,7a1.92,1.92,0,0,1-.21-.27,1.29,1.29,0,0,1-.2-1.34l-.22-.33a1.16,1.16,0,0,1,0-1.34l.06-.09a.21.21,0,0,0,0-.26,1.37,1.37,0,0,1-.11-1,1,1,0,0,1,.63-.69,1.79,1.79,0,0,1,.88-.12.26.26,0,0,0,.26-.11A1.58,1.58,0,0,1,4.63.95c.29,0,.59,0,.89,0,.06,0,.13,0,.18-.05a1.2,1.2,0,0,1,1-.39,1.6,1.6,0,0,0,.39,0,1.52,1.52,0,0,0,.33-.2A1.66,1.66,0,0,1,8.69.17L9,.28a.19.19,0,0,0,.2,0,1.25,1.25,0,0,1,1.3-.13L11,.33a.39.39,0,0,0,.28,0A1.39,1.39,0,0,1,12.06.3a4,4,0,0,1,.45.17l.11.06a.72.72,0,0,0,.55.12,1.47,1.47,0,0,1,1.4.49,1.22,1.22,0,0,0,.35.32,1.19,1.19,0,0,0,.48,0,.44.44,0,0,1,.27.08,5.59,5.59,0,0,1,1.7,1.75,8.45,8.45,0,0,1,.91,2ZM28.57,1.3a4.65,4.65,0,0,0-2,.76c-.19-.18-.21-.31-.1-.51s.1-.14.14-.2l.1-.14A5,5,0,0,0,25,2.27a.59.59,0,0,1-.18-.79,4.09,4.09,0,0,0-1.33,1.14c-.33-.2-.26-.51-.22-.84a13.46,13.46,0,0,0-1.51,1.55s-.05,0-.06-.05l-.23-.57h0l-.1.1A7.93,7.93,0,0,0,19.9,4.9a4.79,4.79,0,0,0-.49,1.67A2.4,2.4,0,0,0,21,9.08a28.58,28.58,0,0,1,9-4.74.07.07,0,0,1,0,0l-.13.07C28.39,5.19,27,6,25.63,6.83a22.05,22.05,0,0,0-3.27,2.45c-.22.21-.43.43-.64.63a3.19,3.19,0,0,0,1,1.67,4.43,4.43,0,0,0,1.5.84,8.89,8.89,0,0,0,3.13.42l.16,0c-.24-.14-.46-.26-.54-.53a1.49,1.49,0,0,1,.21-.07l.48-.06c.33,0,.66-.06,1-.11a2,2,0,0,0,.71-.24c-.24-.08-.48-.13-.59-.39l.51-.16a7.26,7.26,0,0,0,1.3-.49l.31-.19v0a1.16,1.16,0,0,1-.81-.2l.16-.09L30.8,10A6.3,6.3,0,0,0,32,9.26l.2-.17c-.3-.06-.6,0-.88-.16A8.12,8.12,0,0,0,33,7.59a1.6,1.6,0,0,1-.85-.1l.16-.16c.17-.16.35-.3.51-.47s.39-.41.58-.63A2,2,0,0,0,33.53,6c-.35.06-.67.18-1-.05a1.71,1.71,0,0,1,.16-.2l.45-.38a2.66,2.66,0,0,0,.65-.77.81.81,0,0,0,0-.12,2.66,2.66,0,0,1-.9,0,3.1,3.1,0,0,1,.32-.86c.15-.26.32-.51.49-.78-.71,0-1.4,0-2.14,0,.19-.22.38-.37.54-.57a2.85,2.85,0,0,0-1.27,0c-.33.06-.66.16-1,.24-.12,0-.19,0-.2-.12A.42.42,0,0,1,29.74,2,1.51,1.51,0,0,1,30,1.78l.16-.16a9.14,9.14,0,0,0-1.95.47c-.12-.14-.13-.23,0-.35a2.58,2.58,0,0,1,.24-.26Zm-20.34,0,0,0,.16.14a3.28,3.28,0,0,1,.26.27.37.37,0,0,1,.08.19c0,.14-.07.2-.21.16l-.56-.18a5.91,5.91,0,0,0-1.25-.23.58.58,0,0,0,.13.12A.77.77,0,0,1,7,1.91a.82.82,0,0,1,.14.25c0,.16-.08.26-.23.21l-.21-.06a4.69,4.69,0,0,0-1.44-.22,1.69,1.69,0,0,0-.59.1l.26.27a1.22,1.22,0,0,1,.26.29c-.71.05-1.4,0-2.14,0a4.15,4.15,0,0,1,.83,1.65,3.22,3.22,0,0,1-.92,0l.1.19a2.93,2.93,0,0,0,.7.78l.38.33a1.3,1.3,0,0,1,.14.19,1.18,1.18,0,0,1-1,0,1.38,1.38,0,0,0,.31.46c.3.3.61.59.91.88l.2.2a1.73,1.73,0,0,1-.84.1A8.11,8.11,0,0,0,5.49,8.93c-.28.18-.58.09-.87.16a8.94,8.94,0,0,0,2.06,1.25.8.8,0,0,1-.4.18l-.41,0A7.32,7.32,0,0,0,8,11.43c-.12.25-.35.31-.6.38l.21.1a3.63,3.63,0,0,0,1,.21l.84.07a.53.53,0,0,1,.35.13,2.67,2.67,0,0,1-.23.27,3.18,3.18,0,0,1-.32.22h.1a9.8,9.8,0,0,0,2.13-.15A6,6,0,0,0,13.4,12,3.33,3.33,0,0,0,15,10.08.24.24,0,0,0,15,9.8c-.25-.23-.48-.48-.73-.71A21.85,21.85,0,0,0,11.4,7C10,6.06,8.47,5.24,7,4.45l-.1,0-.07,0a28.41,28.41,0,0,1,9,4.74c.17-.1.34-.19.5-.3a2.28,2.28,0,0,0,1-1.82,3.58,3.58,0,0,0-.2-1.37,7.57,7.57,0,0,0-1.73-2.8l-.16-.16c0,.13-.06.24-.1.35a.57.57,0,0,1-.18.31,13.27,13.27,0,0,0-1.5-1.54c0,.33.11.64-.23.83a4.14,4.14,0,0,0-1.33-1.14.6.6,0,0,1-.18.79,4.68,4.68,0,0,0-1.65-1,.89.89,0,0,0,.09.13,1.76,1.76,0,0,1,.16.24.33.33,0,0,1-.13.45A5,5,0,0,0,8.23,1.28ZM29.58,24.7c0-.14,0-.35,0-.56a3.13,3.13,0,0,0,0-.32,6.32,6.32,0,0,0-2.88-4.27,5,5,0,0,0-3.54-.82,4,4,0,0,0-2.92,1.91,4.77,4.77,0,0,0-.61,3.49,6.26,6.26,0,0,0,2.77,4.2,5.11,5.11,0,0,0,3.43.91,4,4,0,0,0,2.81-1.49A4.7,4.7,0,0,0,29.58,24.7ZM17.41,23.61a5,5,0,0,0-.34-2A4.07,4.07,0,0,0,13.51,19a4.73,4.73,0,0,0-2.52.46,6.29,6.29,0,0,0-3.43,3.93,5.18,5.18,0,0,0-.07,3.09,4.08,4.08,0,0,0,2.57,2.82,4.48,4.48,0,0,0,2.91.06,6.34,6.34,0,0,0,4.43-5.71Zm1.17,14.66c.21,0,.58,0,.93-.11a5.16,5.16,0,0,0,3.23-1.9,4.38,4.38,0,0,0,.6-4.72A4.83,4.83,0,0,0,20.78,29a5.62,5.62,0,0,0-3.21-.43,5.31,5.31,0,0,0-3.21,1.67,4.45,4.45,0,0,0-1.2,3.64,4.51,4.51,0,0,0,1.54,2.92A5.69,5.69,0,0,0,18.58,38.27Zm7.72,1.81a5.14,5.14,0,0,0,2.36-.62,7.19,7.19,0,0,0,2.26-1.91A5.3,5.3,0,0,0,31.86,36,6.56,6.56,0,0,0,32,32a3.71,3.71,0,0,0-.44-1,1.27,1.27,0,0,0-.58-.49,1.91,1.91,0,0,0-1.22-.1A4,4,0,0,0,28.5,31a10.57,10.57,0,0,0-2.56,2.29,8,8,0,0,0-1.82,4.42,3.17,3.17,0,0,0,.13,1.27,1.38,1.38,0,0,0,.88.93A3.62,3.62,0,0,0,26.3,40.08ZM4.44,33.53a6.46,6.46,0,0,0,.21,1.59A6.1,6.1,0,0,0,6,37.84c.14.14.27.29.41.42a5.76,5.76,0,0,0,3.43,1.67,3.21,3.21,0,0,0,1.53-.19,1.14,1.14,0,0,0,.59-.52,2.34,2.34,0,0,0,.18-.42,3.17,3.17,0,0,0,.1-1.33A7.11,7.11,0,0,0,11,34.15a8.43,8.43,0,0,0-1.77-1.8,6.32,6.32,0,0,0-1.81-1,3.05,3.05,0,0,0-1.54-.17,1.47,1.47,0,0,0-1.19.94A4,4,0,0,0,4.44,33.53Zm14.1-15a9.6,9.6,0,0,0,2-.2,5.23,5.23,0,0,0,1.74-.68A2.43,2.43,0,0,0,23,16.9a1.45,1.45,0,0,0,.12-1.44,2.82,2.82,0,0,0-.66-.9,5.68,5.68,0,0,0-1.57-1A5.81,5.81,0,0,0,17.73,13a5.94,5.94,0,0,0-3.38,1.56,2.61,2.61,0,0,0-.65.87,1.05,1.05,0,0,0-.08.64,1.92,1.92,0,0,0,.53,1,4.11,4.11,0,0,0,1.48.95A7.77,7.77,0,0,0,18.54,18.5ZM18,40.5h-.11a9.41,9.41,0,0,0-2.58.34,5.15,5.15,0,0,0-1.41.56,2.25,2.25,0,0,0-.44.36.56.56,0,0,0-.07.76,3,3,0,0,0,.38.48,5.92,5.92,0,0,0,2.19,1.38,4.91,4.91,0,0,0,2.85.19A5.9,5.9,0,0,0,21,43.51a4,4,0,0,0,1-1,1.93,1.93,0,0,0,.19-.38.52.52,0,0,0-.09-.52,1.21,1.21,0,0,0-.41-.35A5.3,5.3,0,0,0,21,41,8.51,8.51,0,0,0,18,40.5ZM5.79,24.45c0-.27,0-.66-.08-1a2.84,2.84,0,0,0-.29-1A.91.91,0,0,0,5.13,22a.55.55,0,0,0-.62,0,5.34,5.34,0,0,0-2.23,2.35,5.68,5.68,0,0,0-.19,4.44,4.52,4.52,0,0,0,1.19,1.86.54.54,0,0,0,.81,0,2.1,2.1,0,0,0,.33-.37,3.82,3.82,0,0,0,.47-.9A15,15,0,0,0,5.79,24.45Zm25.11.11c0,.08,0,.11,0,.15a15.76,15.76,0,0,0,.33,2.69A10.05,10.05,0,0,0,32,29.67a2.68,2.68,0,0,0,.45.7,1.34,1.34,0,0,0,.35.27.46.46,0,0,0,.58-.08,5.75,5.75,0,0,0,.57-.63,5.57,5.57,0,0,0,.94-4.31,5.26,5.26,0,0,0-2.65-3.75.56.56,0,0,0-.69.06,1.2,1.2,0,0,0-.28.39A3.79,3.79,0,0,0,31,23,6.73,6.73,0,0,0,30.9,24.56ZM25.35,14l-.54,0-.69.09c-.17,0-.22.12-.17.28a1.09,1.09,0,0,0,.1.25,2.53,2.53,0,0,0,.25.37c.32.38.64.77,1,1.12a27.42,27.42,0,0,0,2.56,2.3A17.83,17.83,0,0,0,30,20a8.55,8.55,0,0,0,.85.41.93.93,0,0,0,.33.06c.17,0,.25-.07.27-.24a.72.72,0,0,0,0-.11,7.14,7.14,0,0,0-.21-1.86,5.35,5.35,0,0,0-3.17-3.73A6.76,6.76,0,0,0,25.35,14Zm-20,5.57c0,.18,0,.33,0,.47s.13.32.34.28a1.79,1.79,0,0,0,.48-.14,10.43,10.43,0,0,0,1-.58,27.41,27.41,0,0,0,4.72-4,5.81,5.81,0,0,0,.82-1,1.5,1.5,0,0,0,.14-.32c0-.15,0-.24-.17-.27l-.34,0a7.22,7.22,0,0,0-2.64.12,5.5,5.5,0,0,0-3.3,2.13A6,6,0,0,0,5.37,19.57Z"/></g></g></svg>