<svg xmlns="http://www.w3.org/2000/svg" viewBox="0 0 21.28 21.28"><defs><style>.cls-1{opacity:0.3;}</style></defs><title>Ресурс 18</title><g id="Слой_2" data-name="Слой 2"><g id="Layer_1" data-name="Layer 1"><g class="cls-1"><path d="M21.28,10.73,17.6,14.38,11,21c-.1.1-.19.21-.28.32h-.17L6.9,17.6.32,11c-.1-.1-.21-.19-.32-.28v-.17L3.69,6.9,10.28.32c.1-.1.19-.21.28-.32h.17l3.65,3.69L21,10.28c.1.1.21.19.32.28ZM10.59,20.84,20.8,10.65,10.65.49.44,10.68Z"/><path d="M10.6,4.91c.15.13.24.19.32.27l5.17,5.18c.19.19.26.32,0,.55q-2.64,2.62-5.26,5.27a2.61,2.61,0,0,1-.25.19Zm.87,9.22,3.43-3.51L11.47,7.19Z"/></g></g></g></svg>