<svg xmlns="http://www.w3.org/2000/svg" viewBox="0 0 20.49 20.46"><defs><style>.cls-1{opacity:0.3;}</style></defs><title>Ресурс 17</title><g id="Слой_2" data-name="Слой 2"><g id="Layer_1" data-name="Layer 1"><g class="cls-1"><path d="M20.19,7.85A10.25,10.25,0,0,0,1,5.8,9,9,0,0,0,.12,8.72a1.76,1.76,0,0,0,0,.21,10.12,10.12,0,0,0,3.64,9.19,9.68,9.68,0,0,0,2.14,1.36c0-.13,0-.23,0-.33q0-4.84,0-9.68a.56.56,0,0,1,.07-.39l.2-.18q1.95-2,3.89-4c.14-.15.21-.15.35,0q2,2.06,4,4.1a.59.59,0,0,1,.18.45c0,.68,0,1.35,0,2,0,0,0,.09,0,.13q0,3.84,0,7.68c0,.06,0,.12,0,.22a11.34,11.34,0,0,0,1.08-.59,12.48,12.48,0,0,0,1.35-1,8.59,8.59,0,0,0,1.81-2.07c0-.06.1-.13.14-.19A10,10,0,0,0,20.19,7.85ZM5.8,8.94,5.85,9Zm12.65,6.41-.1.19a10.08,10.08,0,0,1-2.93,2.85.54.54,0,0,1-.31.14c0-.1,0-.2,0-.29q0-3.13,0-6.26c0-.11,0-.22,0-.32,0-.86,0-1.72,0-2.57A.37.37,0,0,0,15,8.8c-.48-.48-1-1-1.45-1.45-1-1.09-2.08-2.14-3.1-3.22-.19-.2-.28-.18-.45,0C8.51,5.63,7,7.12,5.59,8.62l-.18.2a.71.71,0,0,1,.29.06.71.71,0,0,0-.29-.06c-.16.08-.15.23-.15.37q0,4.49,0,9c0,.1,0,.19,0,.29s-.14,0-.19-.05a9.28,9.28,0,0,1-2.85-2.74A9.58,9.58,0,0,1,.64,9.07c0-.08,0-.16,0-.24a.59.59,0,0,1-.28,0l-.13,0,.13,0a.59.59,0,0,0,.28,0,10.16,10.16,0,0,1,1-3.1A8.78,8.78,0,0,1,3,3.85,9.55,9.55,0,0,1,10.48.58a9.66,9.66,0,0,1,8,14.76Z"/><path d="M12.33,13c0-.19-.06-.24-.24-.24-1.23,0-2.46,0-3.69,0-.24,0-.28.08-.27.29,0,1.15,0,2.3,0,3.44s0,2.33,0,3.5c0,.19,0,.26.24.3a10.58,10.58,0,0,0,3.72,0c.18,0,.25-.09.25-.29Q12.32,16.51,12.33,13Zm-.85,6.8a10.21,10.21,0,0,1-2.57,0c-.16,0-.21-.08-.21-.24q0-3,0-6c0-.2.07-.24.25-.24h2.55c.2,0,.24.07.24.25,0,1,0,2,0,3s0,1.94,0,2.9C11.75,19.7,11.71,19.78,11.48,19.81Z"/></g></g></g></svg>