<svg xmlns="http://www.w3.org/2000/svg" viewBox="0 0 14.74 19.58"><defs><style>.cls-1{opacity:0.3;}</style></defs><title>Ресурс 16</title><g id="Слой_2" data-name="Слой 2"><g id="Layer_1" data-name="Layer 1"><g class="cls-1"><path d="M4.36,18.82l-1.67-.44.63-2.78L0,14.69l.77-1.88a2.41,2.41,0,0,1,.46,0c1.47.32,1.47.32,1.82-1.1.47-1.93,1-3.85,1.42-5.78.36-1.49.3-1.59-1.18-2L2.7,3.74l.45-1.8,3.37.79L7.27,0,9,.41,8.35,3.1l1.24.32L10.3.77,12,1.18l-.64,2.74c.62.31,1.24.57,1.81.92a2.87,2.87,0,0,1,1.53,3,2.86,2.86,0,0,1-2.17,2.56,9.57,9.57,0,0,1-4.85.09c-.93-.19-1.21.07-1.41.93-.54,2.33-1.16,4.64-1.76,7C4.49,18.49,4.43,18.62,4.36,18.82ZM7,8.61c1,.12,1.94.28,2.85.31a1.35,1.35,0,0,0,1.42-1.06,1.34,1.34,0,0,0-.64-1.65c-.85-.43-1.78-.72-2.76-1.11Z"/><path d="M7.44,19.58,5.72,19.1l1.16-4.78c.65,0,1.22.1,1.79.12.78,0,1.55,0,2-.85a1.63,1.63,0,0,0-.52-2.07c1-.23,2-.5,3-.63.25,0,.66.31.83.59,1.37,2.21-.48,5.38-3.21,5.5a12.82,12.82,0,0,1-2-.12c-.43,0-.64.07-.73.51C7.85,18.09,7.64,18.78,7.44,19.58Z"/></g></g></g></svg>