<svg xmlns="http://www.w3.org/2000/svg" viewBox="0 0 53.33 53.27"><defs><style>.cls-1{fill:#01d2cd;}</style></defs><title>Ресурс 14</title><g id="Слой_2" data-name="Слой 2"><g id="Layer_1" data-name="Layer 1"><path class="cls-1" d="M52.56,20.44a26.67,26.67,0,0,0-50-5.34,23.33,23.33,0,0,0-2.3,7.6,4.57,4.57,0,0,0-.12.55c-1,9.62,2.13,17.62,9.47,23.93a25.19,25.19,0,0,0,5.56,3.55c0-.34,0-.6,0-.85q0-12.6,0-25.19a1.46,1.46,0,0,1,.19-1c.17-.16.35-.31.51-.48Q21,18,26.06,12.77c.37-.38.55-.38.92,0q5.17,5.35,10.39,10.66a1.53,1.53,0,0,1,.47,1.18c0,1.76,0,3.52,0,5.29,0,.12,0,.23,0,.35q0,10,0,20c0,.16,0,.32,0,.56a29.52,29.52,0,0,0,2.82-1.53,32.49,32.49,0,0,0,3.51-2.67,22.37,22.37,0,0,0,4.71-5.38c.13-.17.27-.33.38-.5A26.13,26.13,0,0,0,52.56,20.44ZM15.09,23.26l.14.14ZM48,39.94c-.1.16-.18.33-.27.49a26.24,26.24,0,0,1-7.62,7.43,1.4,1.4,0,0,1-.81.36c0-.26,0-.51,0-.76q0-8.15,0-16.29c0-.28,0-.56,0-.84,0-2.23,0-4.47,0-6.7a1,1,0,0,0-.37-.72c-1.26-1.26-2.56-2.49-3.78-3.78-2.66-2.83-5.41-5.56-8.07-8.38-.48-.51-.72-.47-1.18,0-3.77,3.91-7.57,7.79-11.36,11.68-.16.17-.31.35-.46.53a1.85,1.85,0,0,1,.76.15A1.85,1.85,0,0,0,14.1,23c-.43.21-.39.59-.39,1q0,11.68,0,23.36c0,.25,0,.51,0,.74-.24.1-.36-.05-.49-.13A24.16,24.16,0,0,1,5.8,40.78,24.94,24.94,0,0,1,1.65,23.6c0-.21,0-.42,0-.63a1.54,1.54,0,0,1-.72,0l-.34-.11.34.11a1.54,1.54,0,0,0,.72,0,26.45,26.45,0,0,1,2.63-8.08A22.87,22.87,0,0,1,7.77,10a24.86,24.86,0,0,1,19.5-8.5A25.15,25.15,0,0,1,48,39.94Z"/><path class="cls-1" d="M32.1,33.87c0-.5-.15-.62-.64-.62-3.2,0-6.4,0-9.6,0-.63,0-.72.21-.71.76,0,3,0,6,0,9s0,6.07,0,9.1c0,.5.12.68.63.77a27.53,27.53,0,0,0,9.69,0c.47-.08.65-.24.65-.76Q32.08,43,32.1,33.87Zm-2.21,17.7a26.57,26.57,0,0,1-6.69,0c-.43-.06-.54-.22-.54-.63q0-7.77,0-15.54c0-.51.19-.63.66-.62,2.21,0,4.43,0,6.64,0,.51,0,.63.18.62.65,0,2.59,0,5.18,0,7.77s0,5,0,7.56C30.59,51.27,30.49,51.5,29.89,51.57Z"/></g></g></svg>