<svg xmlns="http://www.w3.org/2000/svg" viewBox="0 0 1116.05 455.96"><defs><style>.cls-1{opacity:0.8;}.cls-2{fill:none;}.cls-2,.cls-4{stroke:#f5f5f5;stroke-linecap:round;stroke-linejoin:round;stroke-width:3px;}.cls-3{opacity:0.4;}.cls-4{fill:#fff;}.cls-5{opacity:0.6;}.cls-6{opacity:0.7;}</style></defs><title>Ресурс 1</title><g id="Слой_2" data-name="Слой 2"><g id="Layer_1" data-name="Layer 1"><g class="cls-1"><path class="cls-2" d="M644.13,247.64a19.47,19.47,0,1,1,38.94,0"/><line class="cls-2" x1="653.87" y1="247.93" x2="661.47" y2="270.72"/><path class="cls-2" d="M663.6,247.86s0,.05,0,.08"/><path class="cls-2" d="M653.87,247.93a4.87,4.87,0,0,1,9.73-.08"/><path class="cls-2" d="M659.85,271.5l-15.72-23.57a4.87,4.87,0,1,1,9.74,0"/><path class="cls-2" d="M663.6,247.86a4.87,4.87,0,0,1,9.73.08"/><path class="cls-2" d="M663.6,247.86s0,.05,0,.08v22.43"/><path class="cls-2" d="M667.36,271.5l15.71-23.57a4.87,4.87,0,1,0-9.74,0"/><line class="cls-2" x1="673.34" y1="247.93" x2="665.75" y2="270.72"/><path class="cls-2" d="M659.85,271.5a6.77,6.77,0,1,0,7.51,0"/><path class="cls-2" d="M661.47,270.72a6.75,6.75,0,0,1,2.14-.35"/><path class="cls-2" d="M667.36,271.5a6.74,6.74,0,0,0-1.62-.79"/><path class="cls-2" d="M659.85,271.5a6.74,6.74,0,0,1,1.62-.79"/><path class="cls-2" d="M665.75,270.72a6.75,6.75,0,0,0-2.14-.35h0"/></g><g class="cls-3"><path class="cls-4" d="M234.08,288.34l12.39-19.79v-.18a.61.61,0,0,0,0-.14.61.61,0,0,1,0,.14"/><line class="cls-4" x1="237.59" y1="268.55" x2="231.25" y2="285.81"/><path class="cls-4" d="M225.94,253.94c11.19,0,20.29,6.37,20.52,14.29-.1-1.68-2-3-4.42-3s-4.44,1.41-4.44,3.15v.18c0-2.28-5.22-4.12-11.66-4.12s-11.66,1.84-11.66,4.12v-.18c0-1.74-2-3.15-4.44-3.15s-4.33,1.33-4.42,3C205.65,260.31,214.74,253.94,225.94,253.94Z"/><path class="cls-4" d="M205.4,268.37a.61.61,0,0,1,0-.14.61.61,0,0,0,0,.14v.18l12.39,19.79"/><line class="cls-4" x1="214.28" y1="268.55" x2="220.62" y2="285.81"/><circle class="cls-4" cx="225.94" cy="294.69" r="10.32"/><line class="cls-2" x1="216.02" y1="291.81" x2="221.17" y2="291.81"/><line class="cls-2" x1="225.68" y1="296.16" x2="219.68" y2="296.16"/><line class="cls-2" x1="236.21" y1="293.62" x2="231.89" y2="293.62"/></g><g class="cls-5"><circle class="cls-4" cx="939.63" cy="444.3" r="10.16"/><path class="cls-4" d="M911.66,408a5.14,5.14,0,0,0,6.21-4.35,5.14,5.14,0,0,0,6.87-3.21,5.14,5.14,0,0,0,7.33-2,4.31,4.31,0,0,1,3.92,1.33h0c.06-.09.13-.18.19-.27l.25-.3.22-.23a4.35,4.35,0,0,1,.48-.4l.22-.14a4.3,4.3,0,0,1,.48-.26l.15-.07a4.27,4.27,0,0,1,.69-.21l.18,0a3.87,3.87,0,0,1,1.54,0l.18,0a4.26,4.26,0,0,1,.69.21l.15.07a4.29,4.29,0,0,1,.48.26l.22.14a4.34,4.34,0,0,1,.48.4l.22.23.25.3c.07.09.14.17.19.27h0a17.51,17.51,0,0,0,11.25.63,5.14,5.14,0,0,0,6.87,3.21A5.14,5.14,0,0,0,967.6,408a4.32,4.32,0,0,1,.53,6.09L958.85,424a8.83,8.83,0,0,1-9.55-3.32,6.46,6.46,0,0,0-5.82-1.1,3.51,3.51,0,0,1-1.86-1h0l-.14.08a3.54,3.54,0,0,1-.4.22l-.21.08-.41.13-.2,0a3.5,3.5,0,0,1-.64.06h0a3.5,3.5,0,0,1-.64-.06l-.2,0-.41-.13-.21-.08a3.52,3.52,0,0,1-.39-.21l-.14-.08a6.46,6.46,0,0,0-5.59,2,2.75,2.75,0,0,0-3.5,1.63,2.75,2.75,0,0,0-3.17,2.22,3.53,3.53,0,0,1-5-.43l-9.28-9.82A4.32,4.32,0,0,1,911.66,408Z"/><line class="cls-4" x1="946.6" y1="436.92" x2="967.28" y2="415.03"/><path class="cls-4" d="M914.58,417.79l18.07,19.13"/><line class="cls-4" x1="934.37" y1="435.62" x2="926.51" y2="422.63"/><line class="cls-4" x1="952.75" y1="422.63" x2="944.89" y2="435.62"/><line class="cls-2" x1="948.82" y1="440.67" x2="939.31" y2="440.67"/><line class="cls-2" x1="929.92" y1="444.01" x2="936.03" y2="444.01"/><line class="cls-2" x1="944.89" y1="445.68" x2="941.32" y2="445.68"/><line class="cls-2" x1="937.49" y1="450.61" x2="931.91" y2="450.61"/></g><path class="cls-2" d="M830.23,157.87a33.62,33.62,0,0,1,67.24,0"/><line class="cls-2" x1="847.05" y1="158.37" x2="860.17" y2="197.71"/><path class="cls-2" d="M863.86,158.24s0,.09,0,.13"/><path class="cls-2" d="M847,158.37a8.41,8.41,0,0,1,16.81-.13"/><path class="cls-2" d="M857.38,199.07l-27.14-40.7a8.41,8.41,0,1,1,16.82,0"/><path class="cls-2" d="M863.86,158.24a8.41,8.41,0,0,1,16.81.13"/><path class="cls-2" d="M863.86,158.24s0,.09,0,.13v38.74"/><path class="cls-2" d="M870.35,199.07l27.13-40.7a8.41,8.41,0,0,0-16.82,0"/><line class="cls-2" x1="880.67" y1="158.37" x2="867.56" y2="197.71"/><path class="cls-2" d="M857.38,199.07a11.69,11.69,0,1,0,13,0"/><path class="cls-2" d="M860.17,197.71a11.66,11.66,0,0,1,3.69-.61"/><path class="cls-2" d="M870.35,199.07a11.64,11.64,0,0,0-2.79-1.36"/><path class="cls-2" d="M857.38,199.07a11.65,11.65,0,0,1,2.79-1.36"/><path class="cls-2" d="M867.56,197.71a11.66,11.66,0,0,0-3.69-.61h0"/><path class="cls-2" d="M720.41,45.89a19.47,19.47,0,0,1,38.94,0"/><line class="cls-2" x1="730.15" y1="46.18" x2="737.75" y2="68.96"/><path class="cls-2" d="M739.88,46.1s0,.05,0,.08"/><path class="cls-2" d="M730.15,46.18a4.87,4.87,0,0,1,9.73-.08"/><path class="cls-2" d="M736.13,69.75,720.41,46.18a4.87,4.87,0,0,1,9.74,0"/><path class="cls-2" d="M739.88,46.1a4.87,4.87,0,0,1,9.73.08"/><path class="cls-2" d="M739.88,46.1s0,.05,0,.08V68.61"/><path class="cls-2" d="M743.64,69.75l15.71-23.57a4.87,4.87,0,1,0-9.74,0"/><line class="cls-2" x1="749.62" y1="46.18" x2="742.03" y2="68.96"/><path class="cls-2" d="M736.13,69.75a6.77,6.77,0,1,0,7.51,0"/><path class="cls-2" d="M737.75,69a6.75,6.75,0,0,1,2.14-.35"/><path class="cls-2" d="M743.64,69.75A6.74,6.74,0,0,0,742,69"/><path class="cls-2" d="M736.13,69.75a6.74,6.74,0,0,1,1.62-.79"/><path class="cls-2" d="M742,69a6.75,6.75,0,0,0-2.14-.35h0"/><g class="cls-1"><path class="cls-2" d="M465,237.91a19.47,19.47,0,1,1,38.94,0"/><line class="cls-2" x1="474.73" y1="238.2" x2="482.33" y2="260.98"/><path class="cls-2" d="M484.47,238.12s0,.05,0,.08"/><path class="cls-2" d="M474.73,238.2a4.87,4.87,0,0,1,9.73-.08"/><path class="cls-2" d="M480.72,261.77,465,238.2a4.87,4.87,0,0,1,9.74,0"/><path class="cls-2" d="M484.47,238.12a4.87,4.87,0,0,1,9.73.08"/><path class="cls-2" d="M484.47,238.12s0,.05,0,.08v22.43"/><path class="cls-2" d="M488.23,261.77l15.71-23.57a4.87,4.87,0,0,0-9.74,0"/><line class="cls-2" x1="494.2" y1="238.2" x2="486.61" y2="260.98"/><path class="cls-2" d="M480.72,261.77a6.77,6.77,0,1,0,7.51,0"/><path class="cls-2" d="M482.33,261a6.75,6.75,0,0,1,2.14-.35"/><path class="cls-2" d="M488.23,261.77a6.74,6.74,0,0,0-1.62-.79"/><path class="cls-2" d="M480.72,261.77a6.74,6.74,0,0,1,1.62-.79"/><path class="cls-2" d="M486.61,261a6.75,6.75,0,0,0-2.14-.35h0"/></g><path class="cls-2" d="M177.14,44.32a42.82,42.82,0,0,0-85.64,0"/><line class="cls-2" x1="155.73" y1="44.96" x2="139.02" y2="95.07"/><path class="cls-2" d="M134.31,44.79c0,.06,0,.11,0,.17"/><path class="cls-2" d="M155.73,45a10.71,10.71,0,0,0-21.41-.17"/><path class="cls-2" d="M142.57,96.81,177.14,45a10.71,10.71,0,0,0-21.42,0"/><path class="cls-2" d="M134.31,44.79A10.71,10.71,0,0,0,112.9,45"/><path class="cls-2" d="M134.31,44.79c0,.06,0,.11,0,.17V94.3"/><path class="cls-2" d="M126,96.81,91.49,45a10.71,10.71,0,0,1,21.42,0"/><line class="cls-2" x1="112.9" y1="44.96" x2="129.6" y2="95.07"/><path class="cls-2" d="M142.57,96.81a14.89,14.89,0,1,1-16.52,0"/><path class="cls-2" d="M139,95.07a14.85,14.85,0,0,0-4.71-.77"/><path class="cls-2" d="M126,96.81a14.83,14.83,0,0,1,3.55-1.73"/><path class="cls-2" d="M142.57,96.81A14.83,14.83,0,0,0,139,95.07"/><path class="cls-2" d="M129.6,95.07a14.85,14.85,0,0,1,4.71-.77h0"/><path class="cls-4" d="M611.29,128.75,632.44,95v-.31a1,1,0,0,0,0-.24,1,1,0,0,1,0,.24"/><line class="cls-4" x1="617.29" y1="94.97" x2="606.46" y2="124.43"/><path class="cls-4" d="M597.39,70c19.11,0,34.63,10.88,35,24.4-.17-2.87-3.47-5.14-7.55-5.14s-7.59,2.41-7.59,5.38V95c0-3.89-8.91-7-19.9-7s-19.9,3.14-19.9,7v-.31c0-3-3.4-5.38-7.59-5.38s-7.39,2.28-7.55,5.14C562.76,80.89,578.28,70,597.39,70Z"/><path class="cls-4" d="M562.34,94.65a1,1,0,0,1,0-.24,1,1,0,0,0,0,.24V95l21.15,33.79"/><line class="cls-4" x1="577.49" y1="94.97" x2="588.32" y2="124.43"/><circle class="cls-4" cx="597.39" cy="139.59" r="17.62"/><line class="cls-2" x1="580.47" y1="134.66" x2="589.25" y2="134.66"/><line class="cls-2" x1="596.95" y1="142.1" x2="586.71" y2="142.1"/><line class="cls-2" x1="614.92" y1="137.76" x2="607.55" y2="137.76"/><g class="cls-6"><path class="cls-4" d="M1089.91,230.75l24.65-39.36V191a1.22,1.22,0,0,0,0-.28,1.22,1.22,0,0,1,0,.28"/><line class="cls-4" x1="1096.9" y1="191.39" x2="1084.28" y2="225.72"/><path class="cls-4" d="M1073.72,162.33c22.26,0,40.35,12.67,40.82,28.42-.19-3.34-4-6-8.8-6s-8.84,2.8-8.84,6.27v.36c0-4.54-10.38-8.2-23.18-8.2s-23.18,3.66-23.18,8.2V191c0-3.47-4-6.27-8.84-6.27s-8.6,2.65-8.8,6C1033.37,175,1051.46,162.33,1073.72,162.33Z"/><path class="cls-4" d="M1032.88,191a1.22,1.22,0,0,1,0-.28,1.22,1.22,0,0,0,0,.28v.36l24.65,39.36"/><line class="cls-4" x1="1050.53" y1="191.39" x2="1063.15" y2="225.72"/><circle class="cls-4" cx="1073.72" cy="243.38" r="20.53"/><line class="cls-2" x1="1054" y1="237.64" x2="1064.23" y2="237.64"/><line class="cls-2" x1="1073.2" y1="246.31" x2="1061.28" y2="246.31"/><line class="cls-2" x1="1094.14" y1="241.26" x2="1085.56" y2="241.26"/></g><path class="cls-4" d="M389.95,62.48l10.58-16.89v-.16a.52.52,0,0,0,0-.12.52.52,0,0,1,0,.12"/><line class="cls-4" x1="392.95" y1="45.58" x2="387.53" y2="60.32"/><path class="cls-4" d="M383,33.11c9.55,0,17.31,5.44,17.52,12.2-.08-1.43-1.74-2.57-3.78-2.57s-3.79,1.2-3.79,2.69v.16c0-1.95-4.46-3.52-9.95-3.52S373,43.64,373,45.58v-.16c0-1.49-1.7-2.69-3.79-2.69s-3.69,1.14-3.78,2.57C365.68,38.55,373.44,33.11,383,33.11Z"/><path class="cls-4" d="M365.47,45.43a.52.52,0,0,1,0-.12.52.52,0,0,0,0,.12v.16L376,62.48"/><line class="cls-4" x1="373.05" y1="45.58" x2="378.46" y2="60.32"/><circle class="cls-4" cx="383" cy="67.9" r="8.81"/><line class="cls-2" x1="374.54" y1="65.43" x2="378.93" y2="65.43"/><line class="cls-2" x1="382.78" y1="69.15" x2="377.66" y2="69.15"/><line class="cls-2" x1="391.76" y1="66.98" x2="388.08" y2="66.98"/><g class="cls-6"><path class="cls-4" d="M67.12,228.24,95.48,183v-.42a1.4,1.4,0,0,0,0-.32,1.4,1.4,0,0,1,0,.32"/><line class="cls-4" x1="75.17" y1="182.95" x2="60.65" y2="222.46"/><path class="cls-4" d="M48.49,149.51c25.61,0,46.42,14.58,47,32.71-.22-3.84-4.65-6.9-10.12-6.9s-10.17,3.23-10.17,7.22V183c0-5.22-11.94-9.43-26.67-9.43S21.82,177.73,21.82,183v-.42c0-4-4.56-7.22-10.17-7.22s-9.9,3.05-10.12,6.9C2.07,164.09,22.88,149.51,48.49,149.51Z"/><path class="cls-4" d="M1.5,182.53a1.4,1.4,0,0,1,0-.32,1.4,1.4,0,0,0,0,.32V183l28.36,45.29"/><line class="cls-4" x1="21.81" y1="182.95" x2="36.33" y2="222.46"/><circle class="cls-4" cx="48.49" cy="242.77" r="23.63"/><line class="cls-2" x1="25.8" y1="236.17" x2="37.57" y2="236.17"/><line class="cls-2" x1="47.9" y1="246.14" x2="34.18" y2="246.14"/><line class="cls-2" x1="71.99" y1="240.33" x2="62.12" y2="240.33"/></g><circle class="cls-4" cx="337.36" cy="208.44" r="17.02"/><path class="cls-4" d="M290.49,147.68a7.22,7.22,0,0,1,6.81-1.35,7.21,7.21,0,0,1,10.54-6.09,7.21,7.21,0,0,1,11.44-4.16,7.21,7.21,0,0,1,12-2.11h0c.1-.16.21-.3.33-.45s.27-.34.41-.5.23-.26.36-.39a7.28,7.28,0,0,1,.8-.66l.36-.23a7.2,7.2,0,0,1,.81-.44l.26-.12a7.16,7.16,0,0,1,1.15-.36l.31-.06a6.48,6.48,0,0,1,2.59,0l.31.06a7.14,7.14,0,0,1,1.15.36l.26.12a7.19,7.19,0,0,1,.81.44l.37.24a7.27,7.27,0,0,1,.8.66c.13.12.24.25.36.39s.28.33.41.5.23.29.33.45h0a7.21,7.21,0,0,1,12,2.11,7.21,7.21,0,0,1,11.44,4.16,7.21,7.21,0,0,1,10.54,6.09,7.23,7.23,0,0,1,7.7,11.56l-15.55,16.46a5.91,5.91,0,0,1-10.22-2.21,5.89,5.89,0,0,1-5.79-3.34,5.89,5.89,0,0,1-6.28-2.29,5.89,5.89,0,0,1-6.58-1.16h0l-.23.14a5.94,5.94,0,0,1-.67.36l-.35.14a5.82,5.82,0,0,1-.68.21l-.33.08a5.86,5.86,0,0,1-1.07.11h0a5.87,5.87,0,0,1-1.07-.11l-.33-.08a5.82,5.82,0,0,1-.68-.21l-.35-.14a5.9,5.9,0,0,1-.66-.36l-.24-.14a5.89,5.89,0,0,1-6.58,1.16,5.89,5.89,0,0,1-6.28,2.29,5.89,5.89,0,0,1-5.79,3.34,5.91,5.91,0,0,1-10.22,2.21L289.6,157.89A7.24,7.24,0,0,1,290.49,147.68Z"/><line class="cls-4" x1="349.04" y1="196.08" x2="383.69" y2="159.4"/><path class="cls-4" d="M295.39,164l30.28,32.06"/><line class="cls-4" x1="328.54" y1="193.89" x2="315.37" y2="172.13"/><line class="cls-4" x1="359.34" y1="172.13" x2="346.17" y2="193.89"/><line class="cls-2" x1="352.76" y1="202.35" x2="336.83" y2="202.35"/><line class="cls-2" x1="321.09" y1="207.96" x2="331.33" y2="207.96"/><line class="cls-2" x1="346.17" y1="210.76" x2="340.19" y2="210.76"/><line class="cls-2" x1="333.77" y1="219.01" x2="324.42" y2="219.01"/><circle class="cls-4" cx="999.17" cy="120.98" r="10.16"/><path class="cls-4" d="M971.2,84.72a4.31,4.31,0,0,1,4.06-.81,4.3,4.3,0,0,1,6.29-3.63,4.3,4.3,0,0,1,6.83-2.48,4.3,4.3,0,0,1,7.15-1.26h0c.06-.09.13-.18.19-.27L996,76l.22-.23a4.35,4.35,0,0,1,.48-.4l.22-.14a4.3,4.3,0,0,1,.48-.26l.15-.07a4.27,4.27,0,0,1,.69-.21l.18,0a3.87,3.87,0,0,1,1.54,0l.18,0a4.26,4.26,0,0,1,.69.21l.15.07a4.29,4.29,0,0,1,.48.26l.22.14a4.34,4.34,0,0,1,.48.4l.22.23.25.3c.07.09.14.17.19.27h0a4.3,4.3,0,0,1,7.15,1.26,4.3,4.3,0,0,1,6.83,2.48,4.3,4.3,0,0,1,6.29,3.63,4.32,4.32,0,0,1,4.6,6.9l-9.28,9.82a3.53,3.53,0,0,1-6.1-1.32,3.52,3.52,0,0,1-3.45-2,3.52,3.52,0,0,1-3.75-1.36,3.52,3.52,0,0,1-3.93-.69h0l-.14.08a3.54,3.54,0,0,1-.4.22l-.21.08-.41.13-.2,0a3.5,3.5,0,0,1-.64.06h0a3.5,3.5,0,0,1-.64-.06l-.2,0-.41-.13-.21-.08a3.52,3.52,0,0,1-.39-.21l-.14-.08a3.52,3.52,0,0,1-3.93.69,3.52,3.52,0,0,1-3.75,1.36,3.52,3.52,0,0,1-3.45,2,3.53,3.53,0,0,1-6.1,1.32l-9.28-9.82A4.32,4.32,0,0,1,971.2,84.72Z"/><line class="cls-4" x1="1006.14" y1="113.6" x2="1026.82" y2="91.71"/><path class="cls-4" d="M974.12,94.46l18.07,19.13"/><line class="cls-4" x1="993.91" y1="112.29" x2="986.05" y2="99.31"/><line class="cls-4" x1="1012.29" y1="99.31" x2="1004.43" y2="112.29"/><line class="cls-2" x1="1008.36" y1="117.34" x2="998.85" y2="117.34"/><line class="cls-2" x1="989.46" y1="120.69" x2="995.57" y2="120.69"/><line class="cls-2" x1="1004.43" y1="122.36" x2="1000.86" y2="122.36"/><line class="cls-2" x1="997.03" y1="127.28" x2="991.45" y2="127.28"/></g></g></svg>