<svg xmlns="http://www.w3.org/2000/svg" viewBox="0 0 15.17 15.22"><defs><style>.cls-1{fill:#fff;}</style></defs><title>Asset 16</title><g id="Layer_2" data-name="Layer 2"><g id="Layer_1-2" data-name="Layer 1"><path class="cls-1" d="M15.17,0V7.15c0,.07,0,.07-.06.07H11.36l-1.81,0H7V1.2l.21,0,.66-.09L8.43,1,9,.91l.6-.09.6-.09.6-.09.67-.09.65-.1.6-.09.55-.07.6-.09.6-.09L15.06,0l.1,0Z"/><path class="cls-1" d="M0,2.16l.26,0L.85,2,1.44,2l.48-.06.47-.07.54-.07.53-.07L4,1.62l.53-.08.53-.07.53-.07.54-.08H6.2V7.24s0,0,0,0H0V7.27C0,6,0,4.78,0,3.54V2.16Z"/><path class="cls-1" d="M7,14.06V8h8.17c.05,0,.05,0,.05.06v7.12Z"/><path class="cls-1" d="M0,8H3L5.33,8h.82s0,0,0,0c0,.35,0,.7,0,1.05V14l-.17,0-.65-.09-.58-.08-.53-.07-.57-.08-.54-.07-.53-.08-.58-.07-.52-.08L1,13.25l-.58-.08-.36-.05s0,0,0,0V8Z"/></g></g></svg>