<svg xmlns="http://www.w3.org/2000/svg" viewBox="0 0 13.35 15.72"><defs></defs><title>Asset 17</title><g id="Layer_2" data-name="Layer 2"><g id="Layer_1-2" data-name="Layer 1"><path class="cls-1" d="M1.85,10.87a.64.64,0,0,1-.05-.43A1.41,1.41,0,0,1,1.94,10c.05-.12.11-.22.16-.33l.24-.43A4.85,4.85,0,0,0,2.83,8l.06-.24a2.21,2.21,0,0,1,.44-.88c.18-.24.38-.47.57-.7a4.26,4.26,0,0,0,.41-.54,1.73,1.73,0,0,0,.25-1.11c0-.48-.1-1-.13-1.46,0-.33,0-.66,0-1a2.44,2.44,0,0,1,.18-.93A2.08,2.08,0,0,1,5.12.41,1.3,1.3,0,0,1,5.74.1,4.21,4.21,0,0,1,6.86,0L7,0l.34.05a2.33,2.33,0,0,1,1,.49A2.35,2.35,0,0,1,8.66,1,2.23,2.23,0,0,1,9,1.63a5.78,5.78,0,0,1,.18,1c0,.16,0,.32,0,.48s0,.14,0,.21,0,.27,0,.4.06.47.1.7a1.9,1.9,0,0,0,.21.62c0,.08.09.17.13.25.14.25.3.47.45.7l.34.48c0,.07.11.13.16.19A5.05,5.05,0,0,1,11.47,8c.09.21.18.41.25.62a3.55,3.55,0,0,1,.2,1c0,.2,0,.41,0,.61a2.88,2.88,0,0,1-.12.77.24.24,0,0,0,0,.08h0a.26.26,0,0,1,.2.15,1.55,1.55,0,0,1,.08.23,3,3,0,0,1,.1.52.46.46,0,0,0,.18.32,1.43,1.43,0,0,0,.24.19l.18.1.35.2a.43.43,0,0,1,.19.28.52.52,0,0,1-.13.47.77.77,0,0,1-.36.23l-.07,0-.32.16a3.76,3.76,0,0,0-.87.55c-.26.21-.51.43-.76.65a2.94,2.94,0,0,1-.5.37,1.11,1.11,0,0,1-.67.12l-.16,0a1.14,1.14,0,0,1-.91-.6A.09.09,0,0,0,8.51,15l-1-.1a7.46,7.46,0,0,0-1.16,0,3.18,3.18,0,0,0-1,.16l-.25.1,0,0a1.18,1.18,0,0,1-.58.38,1.35,1.35,0,0,1-.6,0A5.24,5.24,0,0,1,3,15.36a13.8,13.8,0,0,0-1.55-.46c-.17,0-.34-.06-.52-.09a4,4,0,0,1-.57-.16l-.21-.11A.34.34,0,0,1,0,14.22a.9.9,0,0,1,.13-.32,3.9,3.9,0,0,0,.19-.35.77.77,0,0,0,.06-.45c0-.24-.07-.47-.1-.71A1.19,1.19,0,0,1,.3,12a.68.68,0,0,1,.27-.39A.4.4,0,0,1,.8,11.5h.52a.47.47,0,0,0,.26-.08l0,0,.09-.24A.7.7,0,0,1,1.85,10.87Zm7.7.16v0c0-.19,0-.38,0-.56s0-.59,0-.88a3.85,3.85,0,0,0-.17-1.12,1.51,1.51,0,0,0-.24-.55,9.1,9.1,0,0,1-.51-.85s0,0,0,0a2.05,2.05,0,0,1-.1-.55l0-.11c-.17-.33-.36-.65-.5-1a.61.61,0,0,0,0-.12L7.84,4.9l-.06,0-.36.28a3.29,3.29,0,0,1-.68.4,1.65,1.65,0,0,1-1,.14.81.81,0,0,1-.38-.19l-.33-.29H5v0a1.54,1.54,0,0,1-.18.56c-.06.11-.11.23-.17.34a3.47,3.47,0,0,0-.29.65,2,2,0,0,0-.09.35.65.65,0,0,1,0,.2c-.14.29-.29.59-.44.88a5.13,5.13,0,0,0-.48,1.25,2.77,2.77,0,0,0-.08,1v.11l0,0A.75.75,0,0,1,2.92,10,1.84,1.84,0,0,1,3,9.5a4.11,4.11,0,0,1,.26-.82,3.41,3.41,0,0,1,.52-.91v0s0,0,0,0l-.1,0-.07.08c-.06.1-.13.2-.18.3-.13.29-.26.57-.38.86a1.74,1.74,0,0,0-.13.36,2,2,0,0,0-.11.76,1,1,0,0,0,.29.66l.21.2a6.1,6.1,0,0,0,.83.61,2.46,2.46,0,0,1,.4.3,4.18,4.18,0,0,1,.51.52,2.13,2.13,0,0,1,.16.25.29.29,0,0,1,0,.32L5,13,5,13.07a.52.52,0,0,1-.3.16H4.59l0,.07.1.19a.5.5,0,0,0,.2.23.82.82,0,0,0,.2.12,1.94,1.94,0,0,0,.62.15,3.79,3.79,0,0,0,.89,0,3.17,3.17,0,0,0,1.07-.37,3.52,3.52,0,0,0,1-.91.23.23,0,0,0,.06-.19v-.14a.67.67,0,0,0,0-.24.06.06,0,0,1,0,0,2.93,2.93,0,0,1,0-.59.93.93,0,0,1,.18-.42.36.36,0,0,1,.38-.15l.17.07ZM5,14.71a1.84,1.84,0,0,0-.13-.65,4.1,4.1,0,0,0-.48-.87l-.56-.75c-.09-.12-.17-.25-.25-.37a7.41,7.41,0,0,0-.4-.67A1.61,1.61,0,0,0,2.71,11a.72.72,0,0,0-.27-.12H2.35l-.19.05a.49.49,0,0,0-.3.31,1.24,1.24,0,0,1,0,.16.57.57,0,0,1,0,.14.12.12,0,0,1-.08.09.68.68,0,0,1-.28.07l-.41,0a1,1,0,0,0-.33.05.15.15,0,0,0-.09.06.74.74,0,0,0-.15.59c0,.18.06.36.09.54a1.06,1.06,0,0,1,0,.53,1.28,1.28,0,0,1-.16.36,1.46,1.46,0,0,0-.16.36.2.2,0,0,0,.08.26.94.94,0,0,0,.22.12,1.93,1.93,0,0,0,.47.13l.72.13a9.63,9.63,0,0,1,1.26.39c.29.1.59.21.89.29a1.08,1.08,0,0,0,.4,0,1.19,1.19,0,0,0,.69-.44A.18.18,0,0,0,5,15,1.9,1.9,0,0,0,5,14.71Zm4.72.86a1.63,1.63,0,0,0,.49-.09l.11-.06a.83.83,0,0,1,.15-.11.93.93,0,0,0,.26-.18l.75-.65a5.1,5.1,0,0,1,1-.63l.28-.11A.77.77,0,0,0,13,13.6l.05,0A.41.41,0,0,0,13,13a1.08,1.08,0,0,0-.35-.22,1,1,0,0,1-.42-.32,1.35,1.35,0,0,1-.24-.58,3.13,3.13,0,0,0-.1-.44.14.14,0,0,0,0-.07s0-.06-.11,0a.35.35,0,0,0-.13.08l-.19.18a1.45,1.45,0,0,0-.17.18,1.31,1.31,0,0,1-.36.3.92.92,0,0,1-.59.09.74.74,0,0,1-.64-.49,1.81,1.81,0,0,1-.09-.31.32.32,0,0,0-.12-.18.28.28,0,0,0-.42.09.84.84,0,0,0-.07.19,1.5,1.5,0,0,0,0,.42c0,.49,0,1,0,1.46a3.31,3.31,0,0,1-.07.55c0,.14,0,.28,0,.42a.81.81,0,0,1,0,.16c0,.16-.05.32-.08.48a.13.13,0,0,0,0,.12A1.06,1.06,0,0,0,9.7,15.57ZM4.9,4.75A.54.54,0,0,0,5.05,5l.3.31a1,1,0,0,0,1,.26A2.32,2.32,0,0,0,7,5.27l.74-.49A.58.58,0,0,0,8,4.59.53.53,0,0,0,8,4.44a.16.16,0,0,0,0-.2.74.74,0,0,0-.21-.15L7.4,3.92,7,3.77a6.26,6.26,0,0,0-.61-.21.78.78,0,0,0-.56,0l-.42.2a1.68,1.68,0,0,0-.39.3.82.82,0,0,0-.16.22.17.17,0,0,0,0,.2l0,.06,0,0a2.15,2.15,0,0,0,.48.3A1.14,1.14,0,0,0,6.11,5a2.59,2.59,0,0,0,.69-.26,4.28,4.28,0,0,0,.61-.4l.06,0c0,.07,0,.1.06.14l0,0-.32.21a3.31,3.31,0,0,1-.79.36,1.46,1.46,0,0,1-.66.06A1.83,1.83,0,0,1,5,4.8ZM9.56,7.47l.08,0a1.19,1.19,0,0,1,.6.61,2.48,2.48,0,0,1,.2,1.17,3.72,3.72,0,0,1-.21,1,.26.26,0,0,1-.15.19,1.09,1.09,0,0,0-.45.5.08.08,0,0,0,0,0s0,0,0,.05,0,0,0,0l0,0a2.09,2.09,0,0,1,.24-.28.66.66,0,0,1,.46-.21,1.82,1.82,0,0,1,.86.17.71.71,0,0,1,.18.12,1.27,1.27,0,0,1,.2.31v0s0,0,.06,0a.08.08,0,0,0,0,0v-.08a.55.55,0,0,0-.12-.24.94.94,0,0,0-.45-.31,2.45,2.45,0,0,0-.54-.1l-.23,0a.13.13,0,0,1,0-.06,3.57,3.57,0,0,0,.16-.79,3.15,3.15,0,0,0,0-1,1.73,1.73,0,0,0-.47-.93.86.86,0,0,0-.41-.24C9.6,7.37,9.57,7.39,9.56,7.47ZM7.78,4s0,0,0-.05,0-.2,0-.3a2,2,0,0,0,0-.64,1.07,1.07,0,0,0-.1-.39.24.24,0,0,0-.06-.08.61.61,0,0,0-.31-.18.79.79,0,0,0-.63.12l0,0a.58.58,0,0,0-.15.35,1.58,1.58,0,0,0,.12.68.22.22,0,0,0,.16.09,1,1,0,0,1,0-.16,1.41,1.41,0,0,1,0-.29.43.43,0,0,1,.25-.38.32.32,0,0,1,.34,0,.43.43,0,0,1,.24.33.65.65,0,0,1,0,.34.39.39,0,0,1-.26.36l0,0s.06,0,.09,0A.52.52,0,0,1,7.73,4ZM5.66,3.53h0s.06-.08.06-.13,0-.28,0-.42a.61.61,0,0,0-.25-.45.41.41,0,0,0-.62.16l0,.08a1.23,1.23,0,0,0-.08.73A.79.79,0,0,0,5,3.94s.11,0,.15-.1,0,0,0,0a.4.4,0,0,1-.22-.3,1.21,1.21,0,0,1,0-.38A.78.78,0,0,1,5,3l.07-.09a.3.3,0,0,1,.26-.11A.32.32,0,0,1,5.56,3a1.67,1.67,0,0,1,.08.32A.86.86,0,0,1,5.66,3.53ZM5.5,3.32A.5.5,0,0,0,5.42,3a.2.2,0,0,0-.16-.09L5.19,3v.09h.15l.06.26Zm2.11,0a1.1,1.1,0,0,1,0-.16.25.25,0,0,0-.16-.24h0L7.27,3s0,.08.07.09a.24.24,0,0,1,.14.14.61.61,0,0,1,0,.12Z"/><path class="cls-1" d="M5.71,3.88a.49.49,0,0,1,0-.12s0-.08.09-.08a.32.32,0,0,0,.09,0s.07,0,.07,0a.08.08,0,0,1,0,.05.86.86,0,0,1-.13.14S5.76,3.89,5.71,3.88Z"/><path class="cls-1" d="M6.19,3.64s.08,0,.11,0a.22.22,0,0,1,.12.13c0,.05,0,.09,0,.09a.08.08,0,0,1-.1-.05l-.06-.07A.12.12,0,0,1,6.19,3.64Z"/></g></g></svg>